<svg width="45" height="44" viewBox="0 0 45 44" fill="none" xmlns="http://www.w3.org/2000/svg">
<circle cx="15" cy="29" r="15" fill="#E2E9FF" fill-opacity="0.2"/>
<path d="M18.6175 25.3862C18.2086 24.9774 17.5453 24.9774 17.1361 25.3862L9.30686 33.2158C8.89771 33.6246 8.89771 34.288 9.30686 34.6972C9.51143 34.9017 9.77956 35.004 10.0477 35.004C10.3156 35.004 10.5837 34.9017 10.7883 34.6972L18.6175 26.8679C19.0269 26.4588 19.0269 25.7954 18.6175 25.3862Z" fill="white" fill-opacity="0.8"/>
<path d="M43.6977 0.306915C43.4966 0.105815 43.2239 -0.0028797 42.9382 5.80256e-05L29.8747 0.235342C29.4544 0.243087 29.0794 0.501071 28.9221 0.890717C28.7648 1.28036 28.8556 1.72663 29.1528 2.0236L31.973 4.8438L16.885 19.9319C16.6887 20.1284 16.5781 20.395 16.5781 20.6727C16.5781 20.9504 16.6884 21.217 16.885 21.4135L22.5908 27.1188C22.7954 27.3234 23.0635 27.4257 23.3314 27.4257C23.5995 27.4257 23.8676 27.3234 24.0722 27.1188L39.16 12.031L41.9805 14.8512C42.2774 15.1485 42.7237 15.2393 43.1134 15.082C43.503 14.9247 43.761 14.5497 43.7685 14.1294L44.0043 1.06645C44.0094 0.782289 43.8988 0.508014 43.6977 0.306915ZM41.7182 11.6259L39.9008 9.80879C39.7046 9.61224 39.438 9.50194 39.1603 9.50194C38.8823 9.50194 38.6157 9.61224 38.4194 9.80879L23.3314 24.8966L19.1072 20.6727L34.1953 5.58464C34.3918 5.38808 34.5021 5.12182 34.5021 4.8438C34.5021 4.56606 34.3918 4.29953 34.1953 4.10323L32.3782 2.28586L41.8899 2.11467L41.7182 11.6259Z" fill="white" fill-opacity="0.8"/>
<path d="M10.4305 28.9171C10.6986 28.9171 10.9668 28.8146 11.1711 28.61L15.7664 24.0149C16.1756 23.6057 16.1756 22.9424 15.7664 22.5332C15.3573 22.1243 14.6942 22.1243 14.285 22.5332L9.68967 27.1286C9.28053 27.5377 9.28053 28.2011 9.68967 28.6103C9.89424 28.8146 10.1624 28.9171 10.4305 28.9171Z" fill="white" fill-opacity="0.8"/>
<path d="M19.9884 28.2395L15.3928 32.8346C14.9837 33.2437 14.9837 33.9071 15.3928 34.3163C15.5974 34.5208 15.8655 34.6231 16.1336 34.6231C16.4018 34.6231 16.6699 34.5208 16.8745 34.3163L21.4698 29.7209C21.879 29.3117 21.879 28.6483 21.4698 28.2395C21.0607 27.8303 20.3973 27.8303 19.9884 28.2395Z" fill="white" fill-opacity="0.8"/>
</svg>
