<svg width="20" height="27" viewBox="0 0 20 27" fill="none" xmlns="http://www.w3.org/2000/svg">
<path d="M19.9948 6.27173L13.7283 0H1.01106C0.452871 0 0 0.45287 0 1.01106V18.9521H19.9948V6.27173Z" fill="white"/>
<path d="M13.7285 5.26067C13.7285 5.81886 14.1814 6.27173 14.7396 6.27173H20.0002L13.7285 0V5.26067Z" fill="#E2E9FF"/>
<path d="M0.00585938 18.9468V25.7398C0.00585938 26.298 0.45873 26.7509 1.01692 26.7509H18.9896C19.5477 26.7509 20.0006 26.298 20.0006 25.7398V18.9468H0.00585938Z" fill="#E2E9FF"/>
<path d="M4.87111 17.7989C4.54988 17.7989 4.23919 17.6778 3.95483 17.4408C3.47563 17.0406 3.43877 16.5983 3.48617 16.2981C3.71787 14.9448 6.23498 13.7073 7.69891 13.0964C8.49407 11.1059 9.18391 8.76255 9.61045 7.00373C8.75737 5.17645 8.45721 3.8863 8.72051 3.15433C8.85215 2.79098 9.12072 2.55402 9.49986 2.46976L9.55252 2.45923L9.60518 2.46449C9.64731 2.46976 10.0212 2.52769 10.3266 2.93843C10.7216 3.47555 10.8111 4.34443 10.5899 5.524C10.5267 5.86102 10.4214 6.34549 10.2845 6.92474C11.0638 8.54665 12.1592 10.3371 13.0544 11.5798C13.8021 11.4745 14.513 11.4376 15.1134 11.5008C16.235 11.6167 16.472 12.1064 16.5141 12.3908C16.5773 12.8068 16.2719 13.2386 15.7505 13.4598C15.0291 13.7652 13.8495 13.6862 12.8911 12.4434C12.849 12.3908 12.8069 12.3329 12.7647 12.2749C11.5325 12.4803 10.1002 12.87 8.64678 13.4124C8.49407 13.4703 8.34662 13.5282 8.19918 13.5861C7.21445 15.9979 6.25078 17.3829 5.32924 17.7146C5.1818 17.7726 5.02382 17.7989 4.87111 17.7989ZM7.3461 13.9495C5.25552 14.8921 4.21813 15.8242 4.12334 16.4087C4.10228 16.5351 4.10228 16.7299 4.37084 16.9511C4.61834 17.1565 4.85531 17.2091 5.11861 17.1143C5.85057 16.851 6.62993 15.5872 7.3461 13.9495ZM13.5072 12.1749C14.2181 13.0122 15.0186 13.0806 15.503 12.87C15.7558 12.7647 15.898 12.5856 15.8822 12.4856C15.8664 12.3803 15.6294 12.2012 15.0502 12.1433C14.6184 12.1012 14.097 12.1117 13.5072 12.1749ZM10.0528 7.88841C9.73156 9.1259 9.29449 10.6162 8.7837 12.059C8.69418 12.3065 8.60992 12.5435 8.5204 12.7752C9.66311 12.3539 11.0428 11.9432 12.354 11.6957C11.6484 10.6899 10.7795 9.29441 10.0528 7.88841ZM9.57885 3.12274C9.45774 3.16486 9.37875 3.24385 9.33135 3.38077C9.14705 3.8863 9.38928 4.83943 9.85795 5.96634C9.90007 5.76624 9.93694 5.58193 9.96853 5.41342C10.2108 4.1022 9.97906 3.53875 9.81582 3.32284C9.7263 3.20173 9.63151 3.1438 9.57885 3.12274Z" fill="#4069FF"/>
<path d="M14.7624 22.4435H13.5565V21.2165H14.7624C14.9888 21.2165 15.1731 21.0322 15.1731 20.8058C15.1731 20.5793 14.9888 20.395 14.7624 20.395H13.151C12.9245 20.395 12.7402 20.5793 12.7402 20.8058V24.8921C12.7402 25.1186 12.9245 25.3029 13.151 25.3029C13.3774 25.3029 13.5617 25.1186 13.5617 24.8921V23.2597H14.7676C14.9941 23.2597 15.1784 23.0754 15.1784 22.8489C15.1731 22.6225 14.9888 22.4435 14.7624 22.4435Z" fill="#4069FF"/>
<path d="M6.07284 20.4004H5.24082C5.01439 20.4004 4.83008 20.5847 4.83008 20.8111V24.8975C4.83008 25.1239 5.01439 25.3082 5.24082 25.3082C5.46726 25.3082 5.65156 25.1239 5.65156 24.8975V23.2651H6.07284C6.86273 23.2651 7.50517 22.6226 7.50517 21.8327C7.50517 21.0428 6.86273 20.4004 6.07284 20.4004ZM6.07284 22.4436H5.65156V21.2166H6.07284C6.40986 21.2166 6.68369 21.4904 6.68369 21.8275C6.68369 22.1645 6.40986 22.4436 6.07284 22.4436Z" fill="#4069FF"/>
<path d="M9.60023 20.4004H8.52598C8.29954 20.4004 8.11523 20.5847 8.11523 20.8111V24.8975C8.11523 25.1239 8.29954 25.3082 8.52598 25.3082H9.60023C10.9536 25.3082 12.0542 24.2077 12.0542 22.8543C12.0542 21.4957 10.9536 20.4004 9.60023 20.4004ZM9.60023 24.4815H8.93672V21.2113H9.60023C10.5007 21.2113 11.2327 21.9433 11.2327 22.8438C11.2379 23.7495 10.5007 24.4815 9.60023 24.4815Z" fill="#4069FF"/>
</svg>
