<svg width="74" height="97" viewBox="0 0 74 97" fill="none" xmlns="http://www.w3.org/2000/svg">
<path d="M73.4913 25.4393L53.7052 19.7861L48.052 0H8.47976C3.79648 0 0 3.79648 0 8.47976V88.0011C0 92.6844 3.79648 96.4809 8.47976 96.4809H65.0115C69.6948 96.4809 73.4913 92.6844 73.4913 88.0011V25.4393Z" fill="#4086F4"/>
<path d="M73.4937 25.4393V88.0011C73.4937 92.6844 69.6972 96.4809 65.0139 96.4809H36.748V0H48.0544L53.7076 19.7861L73.4937 25.4393Z" fill="#4175DF"/>
<path d="M73.494 25.4393H53.7079C50.5986 25.4393 48.0547 22.8954 48.0547 19.7861V0C48.7896 0 49.5245 0.282659 50.0331 0.848165L72.6458 23.4609C73.2113 23.9695 73.494 24.7044 73.494 25.4393Z" fill="#80AEF8"/>
<path d="M53.7066 45.4139H19.7875C18.2252 45.4139 16.9609 44.1497 16.9609 42.5873C16.9609 41.025 18.2252 39.7607 19.7875 39.7607H53.7066C55.2689 39.7607 56.5332 41.025 56.5332 42.5873C56.5332 44.1497 55.2689 45.4139 53.7066 45.4139Z" fill="#FFF5F5"/>
<path d="M53.7066 56.7203H19.7875C18.2252 56.7203 16.9609 55.4561 16.9609 53.8937C16.9609 52.3314 18.2252 51.0671 19.7875 51.0671H53.7066C55.2689 51.0671 56.5332 52.3314 56.5332 53.8937C56.5332 55.4561 55.2689 56.7203 53.7066 56.7203Z" fill="#FFF5F5"/>
<path d="M53.7066 68.0265H19.7875C18.2252 68.0265 16.9609 66.7622 16.9609 65.1999C16.9609 63.6375 18.2252 62.3733 19.7875 62.3733H53.7066C55.2689 62.3733 56.5332 63.6375 56.5332 65.1999C56.5332 66.7622 55.2689 68.0265 53.7066 68.0265Z" fill="#FFF5F5"/>
<path d="M42.4002 79.3329H19.7875C18.2252 79.3329 16.9609 78.0686 16.9609 76.5063C16.9609 74.9439 18.2252 73.6797 19.7875 73.6797H42.4002C43.9626 73.6797 45.2268 74.9439 45.2268 76.5063C45.2268 78.0686 43.9626 79.3329 42.4002 79.3329Z" fill="#FFF5F5"/>
<path d="M36.7461 79.3328H42.3993C43.9616 79.3328 45.2259 78.0686 45.2259 76.5063C45.2259 74.9439 43.9616 73.6797 42.3993 73.6797H36.7461V79.3328Z" fill="#E3E7EA"/>
<path d="M36.7461 68.0265H53.7056C55.268 68.0265 56.5322 66.7623 56.5322 65.2C56.5322 63.6376 55.268 62.3734 53.7056 62.3734H36.7461V68.0265Z" fill="#E3E7EA"/>
<path d="M36.7461 56.72H53.7056C55.268 56.72 56.5322 55.4557 56.5322 53.8934C56.5322 52.331 55.268 51.0668 53.7056 51.0668H36.7461V56.72Z" fill="#E3E7EA"/>
<path d="M36.7461 45.4137H53.7056C55.268 45.4137 56.5322 44.1494 56.5322 42.5871C56.5322 41.0247 55.268 39.7605 53.7056 39.7605H36.7461V45.4137Z" fill="#E3E7EA"/>
</svg>
