<svg width="45" height="45" viewBox="0 0 45 45" fill="none" xmlns="http://www.w3.org/2000/svg">
<path d="M6.54886 31.8086H0.935551C0.37422 31.8086 0 32.1828 0 32.7441V43.9708C0 44.5321 0.37422 44.9063 0.935551 44.9063H6.54886C7.11019 44.9063 7.48441 44.5321 7.48441 43.9708V32.7441C7.48441 32.1828 7.11019 31.8086 6.54886 31.8086ZM5.61331 43.0352H1.8711V33.6797H5.61331V43.0352Z" fill="#04213F"/>
<path d="M31.5279 27.1313H25.9146C25.3532 27.1313 24.979 27.5056 24.979 28.0669V43.9713C24.979 44.5326 25.3532 44.9068 25.9146 44.9068H31.5279C32.0892 44.9068 32.4634 44.5326 32.4634 43.9713V28.0669C32.4634 27.5056 31.9956 27.1313 31.5279 27.1313ZM30.5923 43.0357H26.8501V29.0024H30.5923V43.0357Z" fill="#04213F"/>
<path d="M18.9917 21.6113H13.3784C12.8171 21.6113 12.4429 21.9855 12.4429 22.5469V43.971C12.4429 44.5323 12.8171 44.9065 13.3784 44.9065H18.9917C19.5531 44.9065 19.9273 44.5323 19.9273 43.971V22.5469C19.9273 21.9855 19.5531 21.6113 18.9917 21.6113ZM18.0562 43.0354H14.314V23.4824H18.0562V43.0354Z" fill="#04213F"/>
<path d="M43.9707 14.5947H38.3574C37.7961 14.5947 37.4219 14.9689 37.4219 15.5303V43.971C37.4219 44.5324 37.7961 44.9066 38.3574 44.9066H43.9707C44.5321 44.9066 44.9063 44.5324 44.9063 43.971V15.5303C44.9063 14.9689 44.5321 14.5947 43.9707 14.5947ZM43.0352 43.0355H39.293V16.4658H43.0352V43.0355Z" fill="#04213F"/>
<path d="M38.4511 7.39085C39.106 7.85863 39.948 8.13929 40.8836 8.13929C43.1289 8.13929 45 6.26819 45 4.02287C44.9064 1.8711 43.0353 0 40.79 0C38.5447 0 36.6736 1.8711 36.6736 4.11642C36.6736 4.77131 36.8607 5.4262 37.1414 5.98753L31.0603 11.2266C30.4054 10.7588 29.5634 10.4782 28.7214 10.4782C27.5988 10.4782 26.6632 10.9459 25.9148 11.6008L18.4304 7.01663C18.5239 6.64241 18.6175 6.26819 18.6175 5.80042C18.6175 3.55509 16.7464 1.68399 14.501 1.68399C12.2557 1.68399 10.3846 3.55509 10.3846 5.80042C10.3846 6.54886 10.5717 7.2973 10.9459 7.85863L6.08108 12.4428C5.4262 12.0686 4.77131 11.7879 3.92931 11.7879C1.8711 11.7879 0 13.659 0 15.9044C0 18.1497 1.8711 20.0208 4.11642 20.0208C6.36175 20.0208 8.23285 18.1497 8.23285 15.9044C8.23285 15.1559 8.04574 14.4075 7.57796 13.7526L12.3493 9.1684C13.0042 9.54262 13.7526 9.82329 14.5946 9.82329C15.7173 9.82329 16.7464 9.35551 17.4948 8.60707L24.9792 13.0977C24.7921 13.5655 24.6985 14.0333 24.6985 14.501C24.6985 16.7464 26.5696 18.6175 28.815 18.6175C31.0603 18.6175 32.9314 16.7464 32.9314 14.501C32.9314 13.8462 32.7443 13.1913 32.4636 12.5364L38.4511 7.39085ZM4.11642 18.1497C2.90021 18.1497 1.8711 17.1206 1.8711 15.9044C1.8711 14.6881 2.90021 13.659 4.11642 13.659C4.67775 13.659 5.23909 13.8462 5.61331 14.2204H5.70686C6.08108 14.5946 6.36175 15.1559 6.36175 15.8108C6.26819 17.1206 5.33264 18.1497 4.11642 18.1497ZM14.5946 8.04574C13.3784 8.04574 12.3493 7.01663 12.3493 5.80042C12.3493 4.5842 13.3784 3.55509 14.5946 3.55509C15.8108 3.55509 16.8399 4.5842 16.8399 5.80042C16.7464 7.01663 15.8108 8.04574 14.5946 8.04574ZM40.79 1.8711C42.0062 1.8711 43.0353 2.90021 43.0353 4.11642C43.0353 5.33264 42.0062 6.36175 40.79 6.36175C39.5738 6.36175 38.5447 5.33264 38.5447 4.11642C38.6383 2.90021 39.5738 1.8711 40.79 1.8711ZM28.7214 16.7464C27.5052 16.7464 26.4761 15.7173 26.4761 14.501C26.4761 13.2848 27.5052 12.2557 28.7214 12.2557C29.9376 12.2557 30.9667 13.2848 30.9667 14.501C30.9667 15.7173 29.9376 16.7464 28.7214 16.7464Z" fill="#EF0548"/>
</svg>
