<svg width="14" height="20" viewBox="0 0 14 20" fill="none" xmlns="http://www.w3.org/2000/svg">
<path d="M5.00012 12.501C5.00012 13.191 4.44012 13.751 3.75012 13.751C3.06012 13.751 2.50012 13.191 2.50012 12.501L2.50012 10.626L2.50012 11.876C2.50012 12.5635 1.93762 13.126 1.25012 13.126C0.562624 13.126 0.000123565 12.5635 0.000123595 11.876L0.000123868 5.62598C0.000123928 4.25098 1.12512 3.12598 2.50012 3.12598L3.12512 3.12598L8.10013 3.12598C8.50763 3.12598 8.88888 3.32473 9.12263 3.65723L13.4714 9.85098C13.9089 10.3885 13.8214 11.176 13.2714 11.601C12.7339 12.0385 11.9464 11.951 11.5214 11.401L10.0001 9.48848L10.0001 18.751C10.0001 19.4385 9.43762 20.001 8.75012 20.001C8.06262 20.001 7.50012 19.4385 7.50012 18.751L7.50012 10.626L7.50012 13.126C7.50012 13.816 6.94012 14.376 6.25012 14.376C5.56012 14.376 5.00012 13.816 5.00012 13.126L5.00012 11.251" fill="#FF9C00"/>
<path d="M10 0.625977L10 3.12598C10 3.47098 9.75125 3.75098 9.445 3.75098L0.556249 3.75098C0.24875 3.75098 -1.51679e-07 3.47098 -1.36598e-07 3.12598L-2.73196e-08 0.625976C-1.22392e-08 0.280976 0.248751 0.000976136 0.555 0.00097615L9.44375 0.000976538C9.75125 0.000976552 10 0.280977 10 0.625977Z" fill="#263238"/>
</svg>
