<svg width="14" height="20" viewBox="0 0 14 20" fill="none" xmlns="http://www.w3.org/2000/svg">
<path d="M5.00061 12.501C5.00061 13.191 4.44061 13.751 3.75061 13.751C3.06061 13.751 2.50061 13.191 2.50061 12.501L2.50061 10.626L2.50061 11.876C2.50061 12.5635 1.93811 13.126 1.25061 13.126C0.563112 13.126 0.000611846 12.5635 0.000611876 11.876L0.00061215 5.62598C0.00061221 4.25098 1.12561 3.12598 2.50061 3.12598L3.12561 3.12598L8.10061 3.12598C8.50811 3.12598 8.88936 3.32473 9.12311 3.65723L13.4719 9.85098C13.9094 10.3885 13.8219 11.176 13.2719 11.601C12.7344 12.0385 11.9469 11.951 11.5219 11.401L10.0006 9.48848L10.0006 18.751C10.0006 19.4385 9.43811 20.001 8.75061 20.001C8.06311 20.001 7.50061 19.4385 7.50061 18.751L7.50061 10.626L7.50061 13.126C7.50061 13.816 6.94061 14.376 6.25061 14.376C5.56061 14.376 5.00061 13.816 5.00061 13.126L5.00061 11.251" fill="#4069FF"/>
<path d="M10.001 0.625977L10.001 3.12598C10.001 3.47098 9.75223 3.75098 9.44598 3.75098L0.557226 3.75098C0.249726 3.75098 0.000976411 3.47098 0.000976426 3.12598L0.000976535 0.625976C0.00097655 0.280976 0.249727 0.000976136 0.555977 0.00097615L9.44473 0.000976538C9.75223 0.000976552 10.001 0.280977 10.001 0.625977Z" fill="#0E1E36"/>
</svg>
