<svg width="50" height="50" viewBox="0 0 50 50" fill="none" xmlns="http://www.w3.org/2000/svg">
<path d="M46.2137 13.691C45.7283 13.9259 45.5252 14.5099 45.76 14.9953C47.2773 18.1308 48.0467 21.4966 48.0467 24.9997C48.0467 37.7078 37.7079 48.0466 24.9998 48.0466C20.0184 48.0466 15.1426 46.4099 11.1676 43.4216C11.6867 42.3327 11.4967 40.9873 10.5962 40.087C9.45388 38.9448 7.59529 38.9448 6.45291 40.087C5.31062 41.2292 5.31062 43.0878 6.45291 44.2302C7.3366 45.1139 8.66794 45.3259 9.76873 44.8109C14.1213 48.1612 19.5011 49.9997 24.9998 49.9997C38.7848 49.9997 49.9998 38.7848 49.9998 24.9997C49.9998 21.1995 49.1648 17.5474 47.5181 14.1447C47.2833 13.6592 46.6994 13.4561 46.2137 13.691Z" fill="#EF0548"/>
<path d="M3.54004 35.8365C4.03066 35.6125 4.24668 35.0331 4.02256 34.5426C2.64932 31.5364 1.95312 28.3258 1.95312 25C1.95312 12.2919 12.2919 1.95312 25 1.95312C29.9031 1.95312 34.5424 3.45967 38.4837 6.31963C37.7986 7.44678 37.942 8.93965 38.9152 9.91289C40.0576 11.0552 41.9161 11.0552 43.0585 9.91289C44.2008 8.77061 44.2008 6.91201 43.0585 5.76963C42.2502 4.96133 41.0834 4.72588 40.0653 5.06143C35.7289 1.77607 30.4751 0 25 0C11.2149 0 0 11.2149 0 25C0 28.6078 0.755664 32.0914 2.246 35.354C2.46895 35.8422 3.04707 36.0617 3.54004 35.8365Z" fill="#EF0548"/>
<path d="M25 6.44531C15.4486 6.44531 6.44531 14.0318 6.44531 25C6.44531 35.1593 14.6972 43.5547 25 43.5547C35.3008 43.5547 43.5547 35.1644 43.5547 25C43.5547 14.8407 35.3028 6.44531 25 6.44531ZM19.773 9.24219C17.755 11.6411 16.5337 15.0649 15.9017 18.1641H9.87187C11.773 13.9735 15.3658 10.7079 19.773 9.24219ZM8.39844 25C8.39844 23.3014 8.65537 21.6616 9.13164 20.1172L15.5671 20.1162C15.3478 21.6881 15.2344 23.3281 15.2344 25C15.2344 26.6719 15.3478 28.3109 15.5671 29.8828H9.13164C8.65537 28.3384 8.39844 26.6986 8.39844 25ZM9.87197 31.8359H15.9018C16.5336 34.9344 17.7548 38.3586 19.7731 40.7578C15.3658 39.2921 11.773 36.0265 9.87197 31.8359ZM24.0234 41.4659C21.3359 40.7167 19.0261 36.93 17.9072 31.8359H24.0234V41.4659ZM24.0234 29.8828H17.547C17.3138 28.3319 17.1875 26.6906 17.1875 25C17.1875 23.3094 17.3139 21.6681 17.547 20.1172H24.0234V29.8828ZM24.0234 18.1641H17.9072C19.0261 13.0699 21.3359 9.2833 24.0234 8.53408V18.1641ZM25.9766 8.53408C28.6641 9.2833 30.9739 13.07 32.0928 18.1641H25.9766V8.53408ZM25.9766 20.1172H32.453C32.6862 21.6681 32.8125 23.3094 32.8125 25C32.8125 26.6906 32.6861 28.3319 32.453 29.8828H25.9766V20.1172ZM25.9766 41.4659V31.835L32.0928 31.8359C30.9739 36.9301 28.6641 40.7167 25.9766 41.4659ZM30.227 40.7578C32.2459 38.3579 33.4668 34.9331 34.0983 31.835H40.1281C38.227 36.0265 34.6342 39.2921 30.227 40.7578ZM41.6016 25C41.6016 26.6986 41.3446 28.3384 40.8684 29.8828H34.4329C34.6522 28.3109 34.7656 26.6719 34.7656 25C34.7656 23.3281 34.6522 21.6891 34.4329 20.1172H40.8684C41.3446 21.6616 41.6016 23.3014 41.6016 25ZM34.0982 18.1641C33.4664 15.0656 32.2452 11.6414 30.2269 9.24219C34.6341 10.7079 38.227 13.9735 40.1279 18.1641H34.0982Z" fill="#04213F"/>
</svg>
