<svg width="17" height="17" viewBox="0 0 17 17" fill="none" xmlns="http://www.w3.org/2000/svg">
<path d="M15.9993 10.1673L13.4991 7.66711H7.66542C7.44439 7.66711 7.23242 7.57931 7.07613 7.42302C6.91983 7.26673 6.83203 7.05475 6.83203 6.83372V1.83339C6.83203 1.61236 6.91983 1.40038 7.07613 1.24409C7.23242 1.0878 7.44439 1 7.66542 1H15.1659C15.3869 1 15.5989 1.0878 15.7552 1.24409C15.9115 1.40038 15.9993 1.61236 15.9993 1.83339V10.1673Z" stroke="#4069FF" stroke-width="1.5" stroke-linecap="round" stroke-linejoin="round"/>
<path d="M10.1673 11.0007V12.6675C10.1673 12.8885 10.0795 13.1005 9.92318 13.2568C9.76689 13.413 9.55492 13.5009 9.33389 13.5009H3.50017L1 16.001V7.66713C1 7.4461 1.0878 7.23413 1.24409 7.07783C1.40038 6.92154 1.61236 6.83374 1.83339 6.83374H3.50017" stroke="#4069FF" stroke-width="1.5" stroke-linecap="round" stroke-linejoin="round"/>
</svg>
