<svg width="20" height="24" viewBox="0 0 20 24" fill="none" xmlns="http://www.w3.org/2000/svg">
<path d="M16.8889 12.3048V10.1776C16.8889 7.07441 14.8262 4.44424 12 3.58517V2.62206C12 1.51927 11.1028 0.62207 10 0.62207C8.89722 0.62207 8.00003 1.51927 8.00003 2.62206V3.58517C5.17381 4.44424 3.11115 7.07436 3.11115 10.1776V12.3048C3.11115 15.0306 2.07213 17.6154 0.185518 19.5828C0.00062972 19.7756 -0.0513257 20.0601 0.053474 20.3058C0.158274 20.5515 0.399606 20.7109 0.666717 20.7109H6.73377C7.04345 22.2305 8.39029 23.3776 10 23.3776C11.6098 23.3776 12.9565 22.2305 13.2663 20.7109H19.3333C19.6004 20.7109 19.8417 20.5515 19.9465 20.3058C20.0513 20.0601 19.9994 19.7756 19.8145 19.5828C17.9279 17.6154 16.8889 15.0306 16.8889 12.3048ZM9.33336 2.62206C9.33336 2.25447 9.63242 1.9554 10 1.9554C10.3676 1.9554 10.6667 2.25447 10.6667 2.62206V3.32108C10.4473 3.29993 10.2249 3.28873 10 3.28873C9.77513 3.28873 9.55278 3.29993 9.33336 3.32108V2.62206ZM10 22.0442C9.13091 22.0442 8.38989 21.4869 8.11469 20.7109H11.8853C11.6101 21.4869 10.8691 22.0442 10 22.0442ZM2.1036 19.3776C3.62186 17.3424 4.44448 14.8794 4.44448 12.3048V10.1776C4.44448 7.11427 6.9367 4.62206 10 4.62206C13.0633 4.62206 15.5556 7.11427 15.5556 10.1776V12.3048C15.5556 14.8794 16.3782 17.3424 17.8965 19.3776H2.1036Z" fill="#FF9C00"/>
<path d="M18.6673 10.1775C18.6673 10.5456 18.9657 10.8441 19.3339 10.8441C19.7021 10.8441 20.0006 10.5456 20.0006 10.1775C20.0006 7.50637 18.9604 4.99513 17.0717 3.10638C16.8113 2.84607 16.3892 2.84603 16.1289 3.10638C15.8685 3.36674 15.8685 3.78882 16.1289 4.04918C17.7658 5.68611 18.6673 7.8625 18.6673 10.1775Z" fill="white"/>
<path d="M0.666665 10.8441C1.03484 10.8441 1.33333 10.5456 1.33333 10.1774C1.33333 7.86252 2.23484 5.68612 3.87172 4.0492C4.13208 3.78884 4.13208 3.36675 3.87172 3.1064C3.61141 2.84604 3.18928 2.84604 2.92892 3.1064C1.04017 4.99515 0 7.50634 0 10.1774C0 10.5456 0.298488 10.8441 0.666665 10.8441Z" fill="white"/>
</svg>
