<svg width="20" height="24" viewBox="0 0 20 24" fill="none" xmlns="http://www.w3.org/2000/svg">
<path d="M16.8889 12.305V10.1778C16.8889 7.07465 14.8262 4.44448 12 3.58542V2.62231C12 1.51951 11.1028 0.622314 10 0.622314C8.89722 0.622314 8.00003 1.51951 8.00003 2.62231V3.58542C5.17381 4.44448 3.11115 7.07461 3.11115 10.1778V12.305C3.11115 15.0309 2.07213 17.6156 0.185518 19.5831C0.00062972 19.7759 -0.0513257 20.0603 0.053474 20.306C0.158274 20.5517 0.399606 20.7111 0.666717 20.7111H6.73377C7.04345 22.2308 8.39029 23.3778 10 23.3778C11.6098 23.3778 12.9565 22.2308 13.2663 20.7111H19.3333C19.6004 20.7111 19.8417 20.5517 19.9465 20.306C20.0513 20.0603 19.9994 19.7759 19.8145 19.5831C17.9279 17.6156 16.8889 15.0308 16.8889 12.305ZM9.33336 2.62231C9.33336 2.25471 9.63242 1.95564 10 1.95564C10.3676 1.95564 10.6667 2.25471 10.6667 2.62231V3.32133C10.4473 3.30017 10.2249 3.28897 10 3.28897C9.77513 3.28897 9.55278 3.30017 9.33336 3.32133V2.62231ZM10 22.0445C9.13091 22.0445 8.38989 21.4871 8.11469 20.7111H11.8853C11.6101 21.4871 10.8691 22.0445 10 22.0445ZM2.1036 19.3778C3.62186 17.3426 4.44448 14.8797 4.44448 12.305V10.1778C4.44448 7.11452 6.9367 4.6223 10 4.6223C13.0633 4.6223 15.5556 7.11452 15.5556 10.1778V12.305C15.5556 14.8797 16.3782 17.3426 17.8965 19.3778H2.1036Z" fill="#4069FF"/>
<path d="M18.6673 10.178C18.6673 10.5461 18.9657 10.8446 19.3339 10.8446C19.7021 10.8446 20.0006 10.5461 20.0006 10.178C20.0006 7.50686 18.9604 4.99562 17.0717 3.10687C16.8113 2.84656 16.3892 2.84652 16.1289 3.10687C15.8685 3.36723 15.8685 3.78931 16.1289 4.04967C17.7658 5.6866 18.6673 7.86299 18.6673 10.178Z" fill="white"/>
<path d="M0.666665 10.8446C1.03484 10.8446 1.33333 10.5461 1.33333 10.1779C1.33333 7.86301 2.23484 5.68661 3.87172 4.04968C4.13208 3.78933 4.13208 3.36724 3.87172 3.10689C3.61141 2.84653 3.18928 2.84653 2.92892 3.10689C1.04017 4.99564 0 7.50683 0 10.1779C0 10.5461 0.298488 10.8446 0.666665 10.8446Z" fill="white"/>
</svg>
