<svg width="50" height="50" viewBox="0 0 50 50" fill="none" xmlns="http://www.w3.org/2000/svg">
<path d="M31.5 27.167C31.6082 27.0227 31.6667 26.8473 31.6667 26.667V23.4689L32.3022 21.5623C32.3988 21.2759 32.4131 20.9681 32.3437 20.6739C32.2742 20.3797 32.1237 20.1108 31.9093 19.8978C31.6316 19.6223 31.2643 19.4556 30.8741 19.4278C30.4839 19.4001 30.0967 19.5132 29.7828 19.7466L27.1981 21.6852C26.5921 21.7597 26.0342 22.053 25.6294 22.5101C25.2246 22.9672 25.0007 23.5564 25 24.167V25.4504L19.8778 29.8409L16.0766 27.9402C15.4977 27.6517 14.8599 27.5011 14.2132 27.5003H11.6667V27.3575C12.1538 27.1846 12.5754 26.8653 12.8738 26.4432C13.1722 26.0212 13.3327 25.5172 13.3333 25.0003V21.5236C13.8893 21.3271 14.358 20.9403 14.6564 20.4317C14.9548 19.923 15.0637 19.3252 14.964 18.744C14.8643 18.1628 14.5623 17.6355 14.1114 17.2555C13.6605 16.8754 13.0897 16.6669 12.5 16.667H8.33333C7.22865 16.6682 6.16957 17.1076 5.38844 17.8888C4.60731 18.6699 4.16792 19.729 4.16667 20.8337V22.5003C4.16667 22.6648 4.21538 22.8257 4.30664 22.9626L5.83333 25.2526V27.5003H5C3.67437 27.5018 2.40347 28.0291 1.46611 28.9664C0.528751 29.9038 0.00148882 31.1747 0 32.5003V42.5003C5.95478e-06 42.5899 0.0144322 42.6789 0.042725 42.7638L0.833333 45.1357V50.0003H2.5V45.8337H12.5V50.0003H14.1667V45.1357L14.9573 42.7638C14.9856 42.6789 15 42.5899 15 42.5003V36.2312L16.733 36.9244C18.3773 37.5821 20.1927 37.6794 21.8979 37.2013C23.6032 36.7231 25.1033 35.6961 26.1659 34.2792L31.5 27.167ZM5.83333 20.8337C5.83408 20.1708 6.09772 19.5354 6.56639 19.0667C7.03507 18.598 7.67052 18.3344 8.33333 18.3337H12.5C12.721 18.3337 12.933 18.4215 13.0893 18.5777C13.2455 18.734 13.3333 18.946 13.3333 19.167C13.3333 19.388 13.2455 19.6 13.0893 19.7562C12.933 19.9125 12.721 20.0003 12.5 20.0003H10.8333C10.6668 20.0003 10.5041 20.0502 10.3661 20.1436C10.2282 20.237 10.1215 20.3695 10.0596 20.5242L8.6025 24.167H7.11263L5.83333 22.248V20.8337ZM7.5 25.8337H9.16667C9.33321 25.8337 9.49594 25.7838 9.63385 25.6904C9.77177 25.597 9.87854 25.4645 9.94039 25.3098L11.3975 21.667H11.6667V25.0003C11.6664 25.2213 11.5785 25.4331 11.4223 25.5893C11.2661 25.7455 11.0543 25.8334 10.8333 25.8337C10.6123 25.8337 10.4004 25.9215 10.2441 26.0777C10.0878 26.234 10 26.446 10 26.667V27.5003H7.5V25.8337ZM14.4761 34.2266C14.3497 34.176 14.2128 34.1572 14.0774 34.1718C13.942 34.1864 13.8122 34.2339 13.6994 34.3103C13.5867 34.3866 13.4943 34.4894 13.4305 34.6097C13.3667 34.73 13.3333 34.8641 13.3333 35.0003V42.3651L12.7327 44.167H2.26725L1.66667 42.3651V32.5003C1.66767 31.6166 2.01918 30.7693 2.64408 30.1444C3.26899 29.5195 4.11625 29.168 5 29.167H14.2132C14.6012 29.1674 14.9838 29.2578 15.3311 29.4309L17.9441 30.7374L16.16 34.9002L14.4761 34.2266ZM24.8325 33.2792C24.0296 34.3507 22.9101 35.1424 21.6324 35.5424C20.3547 35.9423 18.9835 35.9301 17.7131 35.5076L19.4375 31.4841L19.6273 31.579C19.7739 31.6524 19.939 31.6808 20.1018 31.6608C20.2646 31.6408 20.4178 31.5731 20.5423 31.4664L26.3756 26.4664C26.4669 26.3882 26.5402 26.2911 26.5904 26.1819C26.6407 26.0727 26.6667 25.9539 26.6667 25.8337V24.167C26.6669 23.9461 26.7548 23.7342 26.911 23.578C27.0672 23.4218 27.2791 23.3339 27.5 23.3337C27.6803 23.3337 27.8557 23.2752 28 23.167L30.6806 21.1565L30.0427 23.0701C30.0144 23.1551 30 23.2441 30 23.3337V26.3892L24.8325 33.2792Z" fill="#04213F"/>
<path d="M47.5002 0H20.8335C20.1707 0.000758166 19.5352 0.264394 19.0666 0.73307C18.5979 1.20175 18.3343 1.83719 18.3335 2.5V27.5H20.0002V7.5H48.3335V35C48.3332 35.2209 48.2454 35.4328 48.0891 35.589C47.9329 35.7452 47.7211 35.8331 47.5002 35.8333H25.8335V37.5H47.5002C48.163 37.4992 48.7984 37.2356 49.2671 36.7669C49.7358 36.2983 49.9994 35.6628 50.0002 35V2.5C49.9994 1.83719 49.7358 1.20175 49.2671 0.73307C48.7984 0.264394 48.163 0.000758166 47.5002 0ZM20.0002 5.83333V2.5C20.0004 2.27906 20.0883 2.06725 20.2445 1.91102C20.4007 1.7548 20.6126 1.66692 20.8335 1.66667H47.5002C47.7211 1.66692 47.9329 1.7548 48.0891 1.91102C48.2454 2.06725 48.3332 2.27906 48.3335 2.5V5.83333H20.0002Z" fill="#EF0548"/>
<path d="M21.6668 4.16667C22.1271 4.16667 22.5002 3.79357 22.5002 3.33333C22.5002 2.8731 22.1271 2.5 21.6668 2.5C21.2066 2.5 20.8335 2.8731 20.8335 3.33333C20.8335 3.79357 21.2066 4.16667 21.6668 4.16667Z" fill="#04213F"/>
<path d="M24.1668 4.16667C24.6271 4.16667 25.0002 3.79357 25.0002 3.33333C25.0002 2.8731 24.6271 2.5 24.1668 2.5C23.7066 2.5 23.3335 2.8731 23.3335 3.33333C23.3335 3.79357 23.7066 4.16667 24.1668 4.16667Z" fill="#04213F"/>
<path d="M26.6668 4.16667C27.1271 4.16667 27.5002 3.79357 27.5002 3.33333C27.5002 2.8731 27.1271 2.5 26.6668 2.5C26.2066 2.5 25.8335 2.8731 25.8335 3.33333C25.8335 3.79357 26.2066 4.16667 26.6668 4.16667Z" fill="#04213F"/>
<path d="M25 12.5004V10.8337H23.3333C23.1123 10.8337 22.9004 10.9215 22.7441 11.0778C22.5878 11.2341 22.5 11.446 22.5 11.667V16.667C22.5 16.8881 22.5878 17.1 22.7441 17.2563C22.9004 17.4126 23.1123 17.5004 23.3333 17.5004H28.3333C28.5543 17.5004 28.7663 17.4126 28.9226 17.2563C29.0789 17.1 29.1667 16.8881 29.1667 16.667V12.0122L30.5893 10.5896L29.4107 9.41113L24.4107 14.4111L25.5893 15.5896L27.5 13.6789V15.8337H24.1667V12.5004H25Z" fill="#04213F"/>
<path d="M31.6665 11.667H34.9998V13.3337H31.6665V11.667Z" fill="#EF0548"/>
<path d="M36.6665 11.667H45.8332V13.3337H36.6665V11.667Z" fill="#EF0548"/>
<path d="M31.6665 15H38.3332V16.6667H31.6665V15Z" fill="#EF0548"/>
<path d="M40 15H41.6667V16.6667H40V15Z" fill="#EF0548"/>
<path d="M40.8335 20H45.8335V21.6667H40.8335V20Z" fill="#EF0548"/>
<path d="M34.1665 20H39.1665V21.6667H34.1665V20Z" fill="#EF0548"/>
<path d="M33.3335 23.333H41.6668V24.9997H33.3335V23.333Z" fill="#EF0548"/>
<path d="M43.3335 23.333H45.0002V24.9997H43.3335V23.333Z" fill="#EF0548"/>
<path d="M40.8335 28.333H45.8335V29.9997H40.8335V28.333Z" fill="#04213F"/>
<path d="M34.1665 28.333H39.1665V29.9997H34.1665V28.333Z" fill="#04213F"/>
<path d="M33.3335 31.667H41.6668V33.3337H33.3335V31.667Z" fill="#EF0548"/>
<path d="M43.3335 31.667H45.0002V33.3337H43.3335V31.667Z" fill="#EF0548"/>
</svg>
