<svg width="50" height="50" viewBox="0 0 50 50" fill="none" xmlns="http://www.w3.org/2000/svg">
<path d="M41.4734 12.552H40.3767V21.0775C40.3767 27.3938 35.2379 32.5326 28.9216 32.5326H12.5508V33.6297C12.5508 38.3306 16.3754 42.1548 21.0762 42.1548H38.5895L47.5964 49.6606C47.8646 49.8842 48.198 50.0001 48.5344 50.0001C49.3397 50.0001 49.9989 49.3467 49.9989 48.5353V21.0775C49.9989 16.3694 46.1899 12.552 41.4734 12.552Z" fill="#4069FF"/>
<path d="M37.4481 21.0773V8.52547C37.4481 3.80898 33.6311 0 28.9227 0H8.52547C3.80898 0 0 3.81699 0 8.52547V35.9833C0 36.7943 0.65918 37.4481 1.46446 37.4481C1.80092 37.4481 2.13432 37.3322 2.4025 37.1082L11.4094 29.6028H28.9227C33.6235 29.6028 37.4481 25.7786 37.4481 21.0773ZM18.7241 23.3269C17.9153 23.3269 17.2592 22.6707 17.2592 21.862C17.2592 21.0533 17.9153 20.3972 18.7241 20.3972C19.5324 20.3972 20.1889 21.0533 20.1889 21.862C20.1889 22.6707 19.5324 23.3269 18.7241 23.3269ZM20.1889 16.8484V17.1551C20.1889 17.9638 19.5328 18.6199 18.7241 18.6199C17.915 18.6199 17.2592 17.9638 17.2592 17.1551V15.5861C17.2592 14.777 17.915 14.1212 18.7241 14.1212C20.079 14.1212 21.1815 13.0184 21.1815 11.6634C21.1815 10.3081 20.079 9.20563 18.7241 9.20563C18.0664 9.20563 17.4496 9.46121 16.9857 9.92508C16.5218 10.3889 16.2663 11.0058 16.2663 11.6615C16.2663 12.4706 15.6105 13.1275 14.8014 13.1275C13.9923 13.1275 13.3366 12.4722 13.3366 11.6634V11.6615C13.3366 10.2234 13.8969 8.8707 14.9139 7.8537C15.9313 6.83632 17.2836 6.27594 18.7222 6.27594C21.6946 6.27594 24.1112 8.69293 24.1112 11.6634C24.1112 14.1266 22.4499 16.209 20.1889 16.8484Z" fill="#4069FF"/>
</svg>
