<svg width="2315" height="738" viewBox="0 0 2315 738" fill="none" xmlns="http://www.w3.org/2000/svg">
<path d="M958.48 371.645L911.723 418.402C909.815 420.31 907.278 421.361 904.58 421.361C901.882 421.361 899.345 420.31 897.437 418.402C895.529 416.494 894.479 413.958 894.479 411.259C894.479 408.561 895.529 406.025 897.437 404.117L900.807 400.747C909.439 392.115 909.439 378.071 900.807 369.439C892.175 360.807 878.131 360.807 869.5 369.439L863.252 375.686C856.888 382.05 848.426 385.555 839.425 385.555C830.425 385.555 821.963 382.05 815.598 375.686C809.234 369.321 805.729 360.86 805.729 351.858C805.729 342.858 809.234 334.396 815.598 328.031L829.966 313.664C831.848 311.782 831.848 308.73 829.966 306.848C828.084 304.966 825.032 304.966 823.15 306.848L808.783 321.216C791.886 338.112 791.886 365.605 808.783 382.502C816.968 390.687 827.85 395.195 839.426 395.195C851.001 395.195 861.884 390.687 870.069 382.502L876.317 376.255C881.19 371.382 889.119 371.382 893.992 376.255C898.865 381.128 898.865 389.058 893.992 393.931L890.622 397.301C886.894 401.029 884.84 405.987 884.84 411.259C884.84 416.532 886.893 421.489 890.622 425.218C894.351 428.946 899.308 431 904.581 431C909.854 431 914.811 428.947 918.54 425.218L965.297 378.46C967.179 376.578 967.179 373.526 965.297 371.645C963.414 369.762 960.362 369.762 958.48 371.645Z" fill="#EF0548" fill-opacity="0.05"/>
<path d="M765.226 285.069L709.14 341.155C702.287 348.008 702.287 359.159 709.14 366.013C712.567 369.44 717.068 371.153 721.569 371.153C726.07 371.153 730.571 369.44 733.998 366.013L790.084 309.927C796.937 303.074 796.937 291.922 790.084 285.069C783.23 278.215 772.079 278.215 765.226 285.069ZM783.268 303.111L727.182 359.197C724.087 362.291 719.051 362.291 715.956 359.197C712.86 356.102 712.861 351.066 715.956 347.97L772.041 291.884C773.589 290.337 775.622 289.563 777.655 289.563C779.687 289.563 781.721 290.337 783.268 291.884C786.363 294.98 786.363 300.016 783.268 303.111Z" fill="#EF0548" fill-opacity="0.05"/>
<path d="M1028.14 171.121C1028.14 147.05 1008.56 127.467 984.489 127.467C960.419 127.467 940.836 147.05 940.836 171.121C940.836 176.992 942.008 182.593 944.12 187.711C941.145 189.497 938.336 191.663 935.774 194.226L916.724 213.276C911.688 218.311 903.494 218.311 898.458 213.276C893.423 208.24 893.423 200.046 898.458 195.01L917.509 175.959C925.694 167.774 930.202 156.892 930.202 145.316C930.202 133.74 925.694 122.858 917.509 114.673C900.612 97.7758 873.119 97.7758 856.222 114.673L781.197 189.698C764.3 206.595 764.3 234.088 781.197 250.985C800.111 269.902 829.493 266.493 845.368 248.099C850.404 243.064 858.597 243.064 863.634 248.099C866.073 250.539 867.417 253.783 867.417 257.232C867.417 260.682 866.074 263.926 863.634 266.365L839.073 290.926C837.19 292.808 837.19 295.86 839.073 297.741C840.955 299.624 844.007 299.624 845.888 297.741L870.449 273.181C874.709 268.921 877.055 263.257 877.055 257.232C877.055 251.208 874.709 245.544 870.449 241.283C861.656 232.49 847.346 232.489 838.552 241.283C825.107 257.325 801.789 257.98 788.012 244.168C774.874 231.03 774.874 209.653 788.012 196.514L863.038 121.488C869.402 115.124 877.864 111.619 886.865 111.619C895.866 111.619 904.328 115.124 910.692 121.488C917.057 127.853 920.562 136.315 920.562 145.315C920.562 154.316 917.056 162.778 910.692 169.142L891.642 188.193C882.848 196.987 882.848 211.297 891.642 220.091C900.436 228.885 914.745 228.886 923.54 220.091L942.59 201.04C944.476 199.154 946.55 197.527 948.764 196.16C958.722 210.914 979.688 218.842 997.84 212.678C999.327 216.514 1000.11 220.629 1000.11 224.867C1000.11 233.868 996.608 242.33 990.244 248.694L921.366 317.574C917.185 321.755 914.882 327.315 914.882 333.227C914.882 339.14 917.185 344.7 921.366 348.881C925.547 353.062 931.107 355.365 937.02 355.365C942.932 355.365 948.492 353.062 952.673 348.881L966.775 334.78C968.683 332.872 971.22 331.821 973.918 331.821C976.615 331.821 979.152 332.872 981.06 334.78C984.998 338.719 984.998 345.127 981.06 349.065L974.448 355.678C972.565 357.56 972.565 360.612 974.448 362.494C975.388 363.435 976.622 363.905 977.855 363.905C979.089 363.905 980.323 363.435 981.263 362.494L987.876 355.88C995.572 348.184 995.572 335.66 987.876 327.964C984.147 324.235 979.19 322.181 973.917 322.181C968.644 322.181 963.687 324.235 959.958 327.964L945.856 342.065C943.495 344.426 940.357 345.726 937.018 345.726C933.68 345.726 930.542 344.426 928.181 342.065C925.82 339.704 924.52 336.565 924.52 333.227C924.52 329.888 925.82 326.749 928.181 324.389L997.059 255.51C1005.24 247.325 1009.75 236.443 1009.75 224.867C1009.75 219.24 1008.68 213.78 1006.64 208.711C1019.5 201.107 1028.14 187.108 1028.14 171.121ZM984.489 205.135C973.72 205.135 964.111 200.099 957.875 192.265C970.158 189.013 984.696 193.294 992.927 204.075C990.228 204.766 987.401 205.135 984.489 205.135ZM1002.07 200.23C991.836 184.678 969.977 177.687 952.901 183.712C951.342 179.815 950.475 175.568 950.475 171.121C950.475 152.365 965.734 137.106 984.489 137.106C1003.24 137.106 1018.5 152.365 1018.5 171.121C1018.5 183.448 1011.91 194.263 1002.07 200.23Z" fill="#EF0548" fill-opacity="0.05"/>
<path d="M741.689 166.682C752.5 166.682 761.296 157.886 761.296 147.075C761.296 136.263 752.5 127.467 741.689 127.467C730.877 127.467 722.081 136.263 722.081 147.075C722.081 157.886 730.877 166.682 741.689 166.682ZM741.689 137.107C747.185 137.107 751.657 141.578 751.657 147.075C751.657 152.572 747.186 157.043 741.689 157.043C736.192 157.043 731.72 152.572 731.72 147.075C731.72 141.578 736.192 137.107 741.689 137.107Z" fill="#EF0548" fill-opacity="0.05"/>
<path d="M2244.48 269.645L2197.72 316.402C2195.81 318.31 2193.28 319.361 2190.58 319.361C2187.88 319.361 2185.35 318.31 2183.44 316.402C2181.53 314.494 2180.48 311.958 2180.48 309.259C2180.48 306.561 2181.53 304.025 2183.44 302.117L2186.81 298.747C2195.44 290.115 2195.44 276.071 2186.81 267.439C2178.18 258.807 2164.13 258.807 2155.5 267.439L2149.25 273.686C2142.89 280.05 2134.43 283.555 2125.43 283.555C2116.42 283.555 2107.96 280.05 2101.6 273.686C2095.23 267.321 2091.73 258.86 2091.73 249.858C2091.73 240.858 2095.23 232.396 2101.6 226.031L2115.97 211.664C2117.85 209.782 2117.85 206.73 2115.97 204.848C2114.08 202.966 2111.03 202.966 2109.15 204.848L2094.78 219.216C2077.89 236.112 2077.89 263.605 2094.78 280.502C2102.97 288.687 2113.85 293.195 2125.43 293.195C2137 293.195 2147.88 288.687 2156.07 280.502L2162.32 274.255C2167.19 269.382 2175.12 269.382 2179.99 274.255C2184.87 279.128 2184.87 287.058 2179.99 291.931L2176.62 295.301C2172.89 299.029 2170.84 303.987 2170.84 309.259C2170.84 314.532 2172.89 319.489 2176.62 323.218C2180.35 326.946 2185.31 329 2190.58 329C2195.85 329 2200.81 326.947 2204.54 323.218L2251.3 276.46C2253.18 274.578 2253.18 271.526 2251.3 269.645C2249.41 267.762 2246.36 267.762 2244.48 269.645Z" fill="#EF0548" fill-opacity="0.05"/>
<path d="M2051.23 183.069L1995.14 239.155C1988.29 246.008 1988.29 257.159 1995.14 264.013C1998.57 267.44 2003.07 269.153 2007.57 269.153C2012.07 269.153 2016.57 267.44 2020 264.013L2076.08 207.927C2082.94 201.074 2082.94 189.922 2076.08 183.069C2069.23 176.215 2058.08 176.215 2051.23 183.069ZM2069.27 201.111L2013.18 257.197C2010.09 260.291 2005.05 260.291 2001.96 257.197C1998.86 254.102 1998.86 249.066 2001.96 245.97L2058.04 189.884C2059.59 188.337 2061.62 187.563 2063.65 187.563C2065.69 187.563 2067.72 188.337 2069.27 189.884C2072.36 192.98 2072.36 198.016 2069.27 201.111Z" fill="#EF0548" fill-opacity="0.05"/>
<path d="M2314.14 69.1209C2314.14 45.0504 2294.56 25.4672 2270.49 25.4672C2246.42 25.4672 2226.84 45.0504 2226.84 69.1209C2226.84 74.9925 2228.01 80.5929 2230.12 85.7113C2227.14 87.4965 2224.34 89.6634 2221.77 92.2255L2202.72 111.276C2197.69 116.311 2189.49 116.311 2184.46 111.276C2179.42 106.24 2179.42 98.0457 2184.46 93.0095L2203.51 73.9591C2211.69 65.7741 2216.2 54.892 2216.2 43.3159C2216.2 31.7405 2211.69 20.8577 2203.51 12.6727C2186.61 -4.22424 2159.12 -4.22424 2142.22 12.6727L2067.2 87.6983C2050.3 104.595 2050.3 132.088 2067.2 148.985C2086.11 167.902 2115.49 164.493 2131.37 146.099C2136.4 141.064 2144.6 141.064 2149.63 146.099C2152.07 148.539 2153.42 151.783 2153.42 155.232C2153.42 158.682 2152.07 161.926 2149.63 164.365L2125.07 188.926C2123.19 190.808 2123.19 193.86 2125.07 195.741C2126.95 197.624 2130.01 197.624 2131.89 195.741L2156.45 171.181C2160.71 166.921 2163.06 161.257 2163.06 155.232C2163.06 149.208 2160.71 143.544 2156.45 139.283C2147.66 130.49 2133.35 130.489 2124.55 139.283C2111.11 155.325 2087.79 155.98 2074.01 142.168C2060.87 129.03 2060.87 107.653 2074.01 94.5139L2149.04 19.4883C2155.4 13.1238 2163.86 9.61902 2172.87 9.61902C2181.87 9.61902 2190.33 13.1245 2196.69 19.4883C2203.06 25.8528 2206.56 34.3148 2206.56 43.3153C2206.56 52.3158 2203.06 60.7778 2196.69 67.1422L2177.64 86.1926C2168.85 94.9868 2168.85 109.297 2177.64 118.091C2186.44 126.885 2200.75 126.886 2209.54 118.091L2228.59 99.0405C2230.48 97.1544 2232.55 95.5266 2234.76 94.1598C2244.72 108.914 2265.69 116.842 2283.84 110.678C2285.33 114.514 2286.11 118.629 2286.11 122.867C2286.11 131.868 2282.61 140.33 2276.24 146.694L2207.37 215.574C2203.18 219.755 2200.88 225.315 2200.88 231.227C2200.88 237.14 2203.18 242.7 2207.37 246.881C2211.55 251.062 2217.11 253.365 2223.02 253.365C2228.93 253.365 2234.49 251.062 2238.67 246.881L2252.77 232.78C2254.68 230.872 2257.22 229.821 2259.92 229.821C2262.62 229.821 2265.15 230.872 2267.06 232.78C2271 236.719 2271 243.127 2267.06 247.065L2260.45 253.678C2258.57 255.56 2258.57 258.612 2260.45 260.494C2261.39 261.435 2262.62 261.905 2263.86 261.905C2265.09 261.905 2266.32 261.435 2267.26 260.494L2273.88 253.88C2281.57 246.184 2281.57 233.66 2273.88 225.964C2270.15 222.235 2265.19 220.181 2259.92 220.181C2254.64 220.181 2249.69 222.235 2245.96 225.964L2231.86 240.065C2229.5 242.426 2226.36 243.726 2223.02 243.726C2219.68 243.726 2216.54 242.426 2214.18 240.065C2211.82 237.704 2210.52 234.565 2210.52 231.227C2210.52 227.888 2211.82 224.749 2214.18 222.389L2283.06 153.51C2291.24 145.325 2295.75 134.443 2295.75 122.867C2295.75 117.24 2294.68 111.78 2292.64 106.711C2305.5 99.1067 2314.14 85.1079 2314.14 69.1209ZM2270.49 103.135C2259.72 103.135 2250.11 98.099 2243.87 90.2649C2256.16 87.0133 2270.7 91.2937 2278.93 102.075C2276.23 102.766 2273.4 103.135 2270.49 103.135ZM2288.07 98.2301C2277.84 82.6775 2255.98 75.6871 2238.9 81.7123C2237.34 77.8148 2236.48 73.5684 2236.48 69.1209C2236.48 50.3654 2251.73 35.1065 2270.49 35.1065C2289.24 35.1065 2304.5 50.3654 2304.5 69.1209C2304.5 81.4482 2297.91 92.2634 2288.07 98.2301Z" fill="#EF0548" fill-opacity="0.05"/>
<path d="M2027.69 64.6824C2038.5 64.6824 2047.3 55.8862 2047.3 45.0748C2047.3 34.2634 2038.5 25.4673 2027.69 25.4673C2016.88 25.4673 2008.08 34.2634 2008.08 45.0748C2008.08 55.8862 2016.88 64.6824 2027.69 64.6824ZM2027.69 35.1065C2033.18 35.1065 2037.66 39.5779 2037.66 45.0748C2037.66 50.5718 2033.19 55.0431 2027.69 55.0431C2022.19 55.0431 2017.72 50.5718 2017.72 45.0748C2017.72 39.5779 2022.19 35.1065 2027.69 35.1065Z" fill="#EF0548" fill-opacity="0.05"/>
<path d="M254.48 678.645L207.723 725.402C205.815 727.31 203.278 728.361 200.58 728.361C197.882 728.361 195.345 727.31 193.437 725.402C191.529 723.494 190.479 720.958 190.479 718.259C190.479 715.561 191.529 713.025 193.437 711.117L196.807 707.747C205.439 699.115 205.439 685.071 196.807 676.439C188.175 667.807 174.131 667.807 165.5 676.439L159.252 682.686C152.888 689.05 144.426 692.555 135.425 692.555C126.425 692.555 117.963 689.05 111.598 682.686C105.234 676.321 101.729 667.86 101.729 658.858C101.729 649.858 105.234 641.396 111.598 635.031L125.966 620.664C127.848 618.782 127.848 615.73 125.966 613.848C124.084 611.966 121.032 611.966 119.15 613.848L104.783 628.216C87.8863 645.112 87.8863 672.605 104.783 689.502C112.968 697.687 123.85 702.195 135.426 702.195C147.001 702.195 157.884 697.687 166.069 689.502L172.317 683.255C177.19 678.382 185.119 678.382 189.992 683.255C194.865 688.128 194.865 696.058 189.992 700.931L186.622 704.301C182.894 708.029 180.84 712.987 180.84 718.259C180.84 723.532 182.893 728.489 186.622 732.218C190.351 735.946 195.308 738 200.581 738C205.854 738 210.811 735.947 214.54 732.218L261.297 685.46C263.179 683.578 263.179 680.526 261.297 678.645C259.414 676.762 256.362 676.762 254.48 678.645Z" fill="#EF0548" fill-opacity="0.05"/>
<path d="M61.2258 592.069L5.14013 648.155C-1.71338 655.008 -1.71338 666.159 5.14013 673.013C8.56721 676.44 13.0681 678.153 17.569 678.153C22.0699 678.153 26.5714 676.44 29.9978 673.013L86.0835 616.927C92.937 610.074 92.937 598.922 86.0835 592.069C79.23 585.215 68.0793 585.215 61.2258 592.069ZM79.2679 610.111L23.1822 666.197C20.0874 669.291 15.0512 669.291 11.9557 666.197C8.86024 663.102 8.86089 658.066 11.9557 654.97L68.0414 598.884C69.5888 597.337 71.6221 596.563 73.6547 596.563C75.6873 596.563 77.7205 597.337 79.2679 598.884C82.3628 601.98 82.3628 607.016 79.2679 610.111Z" fill="#EF0548" fill-opacity="0.05"/>
<path d="M324.143 478.121C324.143 454.05 304.56 434.467 280.489 434.467C256.419 434.467 236.836 454.05 236.836 478.121C236.836 483.992 238.008 489.593 240.12 494.711C237.145 496.497 234.336 498.663 231.774 501.226L212.724 520.276C207.688 525.311 199.494 525.311 194.458 520.276C189.423 515.24 189.423 507.046 194.458 502.01L213.509 482.959C221.694 474.774 226.202 463.892 226.202 452.316C226.202 440.74 221.694 429.858 213.509 421.673C196.612 404.776 169.119 404.776 152.222 421.673L77.1967 496.698C60.3003 513.595 60.3003 541.088 77.1967 557.985C96.1108 576.902 125.493 573.493 141.368 555.099C146.404 550.064 154.597 550.064 159.634 555.099C162.073 557.539 163.417 560.783 163.417 564.232C163.417 567.682 162.074 570.926 159.634 573.365L135.073 597.926C133.19 599.808 133.19 602.86 135.073 604.741C136.955 606.624 140.007 606.624 141.888 604.741L166.449 580.181C170.709 575.921 173.055 570.257 173.055 564.232C173.055 558.208 170.709 552.544 166.449 548.283C157.656 539.49 143.346 539.489 134.552 548.283C121.107 564.325 97.7893 564.98 84.0123 551.168C70.874 538.03 70.874 516.653 84.0123 503.514L159.038 428.488C165.402 422.124 173.864 418.619 182.865 418.619C191.866 418.619 200.328 422.124 206.692 428.488C213.057 434.853 216.562 443.315 216.562 452.315C216.562 461.316 213.056 469.778 206.692 476.142L187.642 495.193C178.848 503.987 178.848 518.297 187.642 527.091C196.436 535.885 210.745 535.886 219.54 527.091L238.59 508.04C240.476 506.154 242.55 504.527 244.764 503.16C254.722 517.914 275.688 525.842 293.84 519.678C295.327 523.514 296.114 527.629 296.114 531.867C296.114 540.868 292.608 549.33 286.244 555.694L217.366 624.574C213.185 628.755 210.882 634.315 210.882 640.227C210.882 646.14 213.185 651.7 217.366 655.881C221.547 660.062 227.107 662.365 233.02 662.365C238.932 662.365 244.492 660.062 248.673 655.881L262.775 641.78C264.683 639.872 267.22 638.821 269.918 638.821C272.615 638.821 275.152 639.872 277.06 641.78C280.998 645.719 280.998 652.127 277.06 656.065L270.448 662.678C268.565 664.56 268.565 667.612 270.448 669.494C271.388 670.435 272.622 670.905 273.855 670.905C275.089 670.905 276.323 670.435 277.263 669.494L283.876 662.88C291.572 655.184 291.572 642.66 283.876 634.964C280.147 631.235 275.19 629.181 269.917 629.181C264.644 629.181 259.687 631.235 255.958 634.964L241.856 649.065C239.495 651.426 236.357 652.726 233.018 652.726C229.68 652.726 226.542 651.426 224.181 649.065C221.82 646.704 220.52 643.565 220.52 640.227C220.52 636.888 221.82 633.749 224.181 631.389L293.059 562.51C301.244 554.325 305.752 543.443 305.752 531.867C305.752 526.24 304.679 520.78 302.644 515.711C315.499 508.107 324.143 494.108 324.143 478.121ZM280.489 512.135C269.72 512.135 260.111 507.099 253.875 499.265C266.158 496.013 280.696 500.294 288.927 511.075C286.228 511.766 283.401 512.135 280.489 512.135ZM298.068 507.23C287.836 491.678 265.977 484.687 248.901 490.712C247.342 486.815 246.475 482.568 246.475 478.121C246.475 459.365 261.734 444.106 280.489 444.106C299.245 444.106 314.504 459.365 314.504 478.121C314.504 490.448 307.912 501.263 298.068 507.23Z" fill="#EF0548" fill-opacity="0.05"/>
<path d="M37.6886 473.682C48.5 473.682 57.2961 464.886 57.2961 454.075C57.2961 443.263 48.5 434.467 37.6886 434.467C26.8772 434.467 18.0811 443.263 18.0811 454.075C18.0811 464.886 26.8772 473.682 37.6886 473.682ZM37.6886 444.107C43.1849 444.107 47.6569 448.578 47.6569 454.075C47.6569 459.572 43.1855 464.043 37.6886 464.043C32.1916 464.043 27.7203 459.572 27.7203 454.075C27.7203 448.578 32.1923 444.107 37.6886 444.107Z" fill="#EF0548" fill-opacity="0.05"/>
</svg>
