<svg width="381" height="382" viewBox="0 0 381 382" fill="none" xmlns="http://www.w3.org/2000/svg">
<path d="M243.506 301.22C242.244 287.021 245.194 276.017 252.036 269.399C257.76 263.863 265.94 261.573 275.694 262.776C298.36 265.57 309.341 251.984 311.859 239.501C314.866 224.586 307.251 210.629 294.145 207.035C291.112 206.203 287.889 206.345 284.477 206.496C279.513 206.716 274.38 206.943 269.139 204.31C265.7 202.581 262.927 199.147 261.905 195.348C261.145 192.525 261.433 189.88 262.715 187.902C267.871 179.946 278.912 178.129 290.601 176.205C302.676 174.218 315.163 172.164 321.55 162.4C331.958 146.488 326.239 128.181 315.561 119.035C304.845 109.851 290.948 110.192 280.155 119.9C267.362 131.407 256.029 136.739 248.244 134.913C243.247 133.74 239.275 129.464 236.438 122.202C232.386 111.826 226.114 104.851 218.301 102.031C211.771 99.6755 204.667 100.437 197.756 104.234C185.11 111.184 185.027 124.034 184.972 132.538C184.96 134.396 184.949 136.151 184.824 137.63C184.147 145.675 176.346 149.968 169.198 149.47C158.108 148.699 154.795 138.372 155.392 128.967C156.983 103.903 150.013 85.0462 136.751 78.5305C127.701 74.0843 117.018 76.3225 107.442 84.6692C92.7954 97.4364 99.6003 113.999 105.604 128.611C109.485 138.058 113.497 147.824 111.356 155.514C109.779 161.174 103.981 162.683 93.0129 165.071C79.2442 168.068 60.3885 172.173 48.5464 193.367C37.3217 213.458 39.2282 234.631 53.7797 251.459C55.4109 253.344 57.1499 255.113 58.9771 256.758C73.7058 270.02 94.1606 275.244 109.984 269.168C130.391 261.332 145.4 260.543 154.594 266.825C167.199 275.438 167.284 296.787 167.33 308.256C167.334 309.447 167.339 310.549 167.354 311.546C167.574 325.514 176.202 338.617 189.882 345.744C202.988 352.573 217.646 352.442 228.135 345.402C243.186 335.298 244.802 315.799 243.506 301.22ZM222.59 337.105C215.146 342.101 204.393 342.012 194.527 336.871C186.348 332.609 177.54 323.665 177.347 311.345C177.332 310.384 177.328 309.322 177.323 308.174C177.272 294.874 177.183 270.126 160.254 258.559C148.198 250.322 130.091 250.751 106.436 259.835C92.6674 265.122 73.2855 258.701 61.3496 244.897C49.7033 231.43 48.2147 214.416 57.265 198.218C66.8951 180.982 81.8774 177.72 95.0967 174.842C106.212 172.422 117.706 169.921 120.982 158.16C124.046 147.158 119.372 135.779 114.85 124.775C108.598 109.56 105.212 99.8466 113.988 92.1973C117.739 88.9273 125.108 83.9707 132.313 87.5113C133.49 88.089 134.6 88.8539 135.639 89.7897C142.765 96.2062 146.54 110.677 145.416 128.378C144.131 148.642 156.064 158.584 168.46 159.447C174.536 159.87 180.775 158.114 185.577 154.63C190.963 150.721 194.233 144.968 194.783 138.428C194.941 136.562 194.953 134.618 194.966 132.561C195.027 123.222 195.586 116.816 202.538 112.996C206.915 110.591 211.065 110.068 214.873 111.442C219.839 113.233 224.191 118.361 227.126 125.878C231.224 136.371 237.548 142.686 245.922 144.651C257.309 147.322 271.068 141.493 286.82 127.324C293.851 121 302.158 120.745 309.04 126.643C316.507 133.031 320.475 145.819 313.194 156.95C309.227 163.014 299.412 164.63 289.021 166.34C276.314 168.431 261.912 170.801 254.336 182.488C251.487 186.884 250.748 192.389 252.254 197.988C254.017 204.539 258.64 210.244 264.624 213.251C272.182 217.049 279.221 216.738 284.877 216.487C287.482 216.372 289.944 216.264 291.466 216.681C298.268 218.546 304.294 226.5 302.061 237.566C300.314 246.237 292.801 254.804 276.959 252.851C264.283 251.288 252.97 254.617 245.105 262.226C238.761 268.362 231.607 280.27 233.55 302.149C235.064 319.188 231.274 331.276 222.59 337.105Z" fill="#FF9C00" fill-opacity="0.05"/>
</svg>
