<svg width="482" height="482" viewBox="0 0 482 482" fill="none" xmlns="http://www.w3.org/2000/svg">
<path d="M286.705 349.301C285.443 335.102 288.392 324.099 295.234 317.481C300.958 311.944 309.139 309.655 318.893 310.857C341.559 313.651 352.54 300.066 355.057 287.583C358.065 272.667 350.45 258.711 337.344 255.116C334.311 254.284 331.088 254.427 327.676 254.578C322.712 254.797 317.578 255.024 312.338 252.391C308.898 250.662 306.126 247.228 305.104 243.429C304.344 240.606 304.631 237.961 305.914 235.983C311.07 228.027 322.111 226.21 333.799 224.287C345.875 222.299 358.361 220.245 364.748 210.481C375.157 194.57 369.438 176.263 358.76 167.117C348.044 157.933 334.146 158.273 323.354 167.981C310.561 179.489 299.228 184.82 291.443 182.994C286.446 181.822 282.473 177.546 279.637 170.284C275.584 159.907 269.312 152.932 261.499 150.113C254.969 147.757 247.865 148.519 240.955 152.316C228.308 159.265 228.226 172.116 228.171 180.619C228.159 182.477 228.147 184.232 228.023 185.711C227.345 193.756 219.545 198.049 212.397 197.551C201.306 196.78 197.994 186.454 198.591 177.048C200.182 151.984 193.211 133.128 179.949 126.612C170.899 122.166 160.217 124.404 150.641 132.751C135.994 145.518 142.799 162.08 148.802 176.693C152.683 186.139 156.696 195.906 154.554 203.596C152.978 209.256 147.18 210.765 136.212 213.153C122.443 216.15 103.587 220.255 91.7451 241.449C80.5204 261.539 82.427 282.712 96.9785 299.54C98.6096 301.426 100.349 303.195 102.176 304.84C116.905 318.101 137.359 323.326 153.182 317.25C173.59 309.414 188.599 308.624 197.793 314.906C210.398 323.519 210.483 344.868 210.528 356.338C210.533 357.528 210.537 358.631 210.553 359.627C210.773 373.596 219.401 386.698 233.08 393.826C246.187 400.654 260.845 400.523 271.333 393.483C286.384 383.38 288 363.88 286.705 349.301ZM265.789 385.187C258.345 390.183 247.592 390.093 237.726 384.952C229.547 380.691 220.739 371.747 220.546 359.427C220.531 358.466 220.526 357.403 220.522 356.255C220.471 342.956 220.382 318.207 203.453 306.64C191.396 298.403 173.289 298.833 149.635 307.916C135.866 313.203 116.484 306.782 104.548 292.978C92.9021 279.512 91.4134 262.497 100.464 246.299C110.094 229.063 125.076 225.801 138.295 222.923C149.411 220.503 160.905 218.002 164.181 206.241C167.245 195.24 162.571 183.861 158.049 172.857C151.797 157.641 148.411 147.928 157.187 140.279C160.938 137.009 168.307 132.052 175.512 135.593C176.688 136.17 177.798 136.935 178.838 137.871C185.964 144.288 189.738 158.759 188.615 176.459C187.33 196.723 199.263 206.666 211.659 207.528C217.735 207.951 223.973 206.195 228.776 202.711C234.162 198.802 237.431 193.049 237.982 186.51C238.139 184.643 238.152 182.699 238.165 180.642C238.226 171.304 238.785 164.897 245.736 161.078C250.114 158.672 254.264 158.15 258.072 159.523C263.038 161.314 267.389 166.442 270.325 173.96C274.423 184.453 280.746 190.768 289.121 192.732C300.508 195.403 314.267 189.574 330.019 175.406C337.05 169.081 345.357 168.826 352.238 174.724C359.706 181.113 363.674 193.9 356.393 205.031C352.426 211.095 342.61 212.711 332.22 214.421C319.512 216.512 305.11 218.883 297.535 230.57C294.686 234.966 293.947 240.47 295.453 246.07C297.216 252.62 301.839 258.326 307.822 261.332C315.381 265.131 322.42 264.819 328.076 264.569C330.681 264.453 333.143 264.345 334.665 264.762C341.467 266.627 347.493 274.581 345.26 285.648C343.513 294.318 336 302.885 320.158 300.933C307.482 299.37 296.169 302.699 288.304 310.307C281.96 316.444 274.806 328.351 276.749 350.23C278.263 367.269 274.473 379.358 265.789 385.187Z" fill="#4069FF" fill-opacity="0.05"/>
<path d="M249.087 81.9231C253.164 75.8034 256.405 68.0882 258.213 60.1978C262.418 41.854 258.584 26.1283 247.721 17.0263C240.03 10.5943 229.484 9.18455 220.197 13.3459C208.756 18.4725 201.595 30.4949 201.04 45.5064C200.379 63.3839 206.304 80.7454 215.886 89.3728C216.258 89.7074 216.635 90.0294 217.018 90.3375C222.251 94.5494 228.142 95.9712 234.053 94.4505C240.725 92.7344 245.911 86.6909 249.087 81.9231ZM231.604 84.7663C228.785 85.4913 226.07 84.7617 223.304 82.5349C215.628 76.3598 210.47 60.9259 211.028 45.8322C211.439 34.7293 216.381 25.9951 224.25 22.4691C230.106 19.845 236.477 20.6823 241.292 24.7093C241.497 24.8808 241.696 25.0535 241.893 25.2306C252.42 34.7092 250.022 51.2439 248.473 58.002C245.835 69.5098 238.427 83.0108 231.604 84.7663Z" fill="#4069FF" fill-opacity="0.05"/>
<path d="M315.507 125.271C318.062 121.238 322.617 107.569 318.732 97.6698C316.817 92.7948 313.135 89.5253 308.083 88.2163C300.122 86.1547 292.437 88.3967 287.525 94.2132C281.936 100.831 281.13 110.414 285.368 119.849C287.418 124.413 289.73 127.521 292.054 129.613C295.245 132.487 298.46 133.444 301.044 133.62C306.551 133.995 311.958 130.874 315.507 125.271ZM301.765 123.644C299.364 123.481 296.643 120.517 294.488 115.717C291.865 109.877 292.112 104.243 295.149 100.647C297.545 97.8097 301.332 96.8076 305.539 97.897C307.486 98.4005 308.686 99.4688 309.427 101.36C311.753 107.284 308.555 117.603 307.073 119.944C305.551 122.345 303.518 123.763 301.765 123.644Z" fill="#4069FF" fill-opacity="0.05"/>
<path d="M424.265 245.871C426.659 242.127 427.18 238.057 425.773 234.101C424.413 230.276 421.246 226.726 416.361 223.552C409.622 219.172 400.359 219.453 390.95 224.322C382.803 228.538 374.417 236.589 374.044 245.076C373.881 248.793 375.291 252.095 378.06 254.588C378.685 255.151 379.38 255.672 380.142 256.149C385.779 259.672 394.46 260.383 403.96 258.096C413.2 255.873 420.791 251.303 424.265 245.871ZM385.463 247.662C383.975 246.732 384.009 245.942 384.028 245.471C384.166 242.356 388.595 236.778 395.511 233.2C401.546 230.077 407.295 229.608 410.891 231.945C418.26 236.736 416.512 239.477 415.852 240.508C411.274 247.666 392.53 252.079 385.463 247.662Z" fill="#4069FF" fill-opacity="0.05"/>
<path d="M272.382 454.236C273.235 444.223 267.958 433.207 259.843 428.043C253.617 424.082 246.58 423.967 240.029 427.72C228.716 434.2 226.825 450.11 232.156 460.904C233.526 463.677 235.267 465.991 237.3 467.821C243.339 473.258 251.945 474.41 260.972 470.558C267.579 467.738 271.738 461.79 272.382 454.236ZM257.084 461.363C252.909 463.144 245.284 464.874 241.121 456.444C237.188 448.481 239.908 439.291 244.966 436.393C248.272 434.5 251.375 434.531 254.452 436.489C255.063 436.877 255.651 437.329 256.212 437.834C260.253 441.473 262.894 447.887 262.422 453.432C262.09 457.324 260.295 459.992 257.084 461.363Z" fill="#4069FF" fill-opacity="0.05"/>
</svg>
