<svg width="55" height="56" viewBox="0 0 55 56" fill="none" xmlns="http://www.w3.org/2000/svg">
<path d="M43.3161 45.8969L35.3574 53.8556C35.0327 54.1804 34.6008 54.3592 34.1416 54.3592C33.6825 54.3592 33.2506 54.1804 32.9259 53.8556C32.6011 53.5309 32.4223 53.0991 32.4223 52.6398C32.4223 52.1805 32.6011 51.7488 32.9259 51.4241L33.4995 50.8505C34.9687 49.3812 34.9687 46.9907 33.4995 45.5215C32.0301 44.0522 29.6396 44.0522 28.1705 45.5215L27.1071 46.5848C26.0238 47.6681 24.5834 48.2647 23.0514 48.2647C21.5194 48.2647 20.0791 47.668 18.9958 46.5848C17.9125 45.5015 17.3159 44.0611 17.3159 42.529C17.3159 40.997 17.9126 39.5567 18.9958 38.4734L21.4413 36.0278C21.7617 35.7074 21.7617 35.188 21.4413 34.8677C21.121 34.5473 20.6015 34.5473 20.2812 34.8677L17.8357 37.3133C14.9597 40.1893 14.9597 44.8689 17.8357 47.745C19.2289 49.1382 21.0813 49.9055 23.0516 49.9055C25.0218 49.9055 26.8742 49.1382 28.2674 47.745L29.3308 46.6817C30.1604 45.8523 31.51 45.8523 32.3395 46.6817C33.1689 47.5111 33.1689 48.8608 32.3395 49.6904L31.7659 50.264C31.1312 50.8986 30.7817 51.7424 30.7817 52.6398C30.7817 53.5373 31.1311 54.3811 31.7659 55.0157C32.4005 55.6503 33.2443 55.9999 34.1418 55.9999C35.0393 55.9999 35.8831 55.6505 36.5177 55.0157L44.4765 47.057C44.7968 46.7366 44.7968 46.2172 44.4765 45.8969C44.156 45.5765 43.6365 45.5765 43.3161 45.8969Z" fill="white" fill-opacity="0.5"/>
<path d="M10.4214 31.1606L0.874916 40.7071C-0.291639 41.8736 -0.291639 43.7717 0.874916 44.9383C1.45825 45.5216 2.22436 45.8132 2.99047 45.8132C3.75657 45.8132 4.52279 45.5216 5.10602 44.9383L14.6525 35.3918C15.8191 34.2252 15.8191 32.3271 14.6525 31.1606C13.486 29.994 11.588 29.994 10.4214 31.1606ZM13.4924 34.2316L3.94591 43.7781C3.41913 44.3048 2.56191 44.3048 2.03502 43.7781C1.50813 43.2513 1.50824 42.3941 2.03502 41.8672L11.5815 32.3207C11.8449 32.0573 12.191 31.9256 12.537 31.9256C12.8829 31.9256 13.229 32.0573 13.4924 32.3207C14.0192 32.8476 14.0192 33.7048 13.4924 34.2316Z" fill="white" fill-opacity="0.5"/>
<path d="M54.7587 11.7653C54.7587 7.66814 51.4254 4.33485 47.3283 4.33485C43.2312 4.33485 39.898 7.66814 39.898 11.7653C39.898 12.7647 40.0975 13.7179 40.457 14.5892C39.9505 14.893 39.4725 15.2619 39.0364 15.698L35.7938 18.9406C34.9367 19.7977 33.542 19.7977 32.6847 18.9406C31.8276 18.0834 31.8276 16.6886 32.6847 15.8314L35.9274 12.5888C37.3206 11.1956 38.0879 9.34332 38.0879 7.37292C38.0879 5.40263 37.3206 3.55025 35.9274 2.15706C33.0514 -0.71902 28.3716 -0.71902 25.4956 2.15706L12.7253 14.9274C9.84937 17.8033 9.84937 22.483 12.7253 25.3591C15.9448 28.5791 20.9459 27.9988 23.6481 24.868C24.5053 24.011 25.8999 24.0109 26.7571 24.868C27.1724 25.2832 27.4011 25.8353 27.4011 26.4225C27.4011 27.0097 27.1725 27.5618 26.7571 27.977L22.5766 32.1576C22.2562 32.478 22.2562 32.9974 22.5766 33.3177C22.897 33.6381 23.4164 33.6381 23.7367 33.3177L27.9172 29.1371C28.6423 28.412 29.0417 27.448 29.0417 26.4225C29.0417 25.397 28.6423 24.433 27.9172 23.7078C26.4205 22.211 23.9849 22.2109 22.4879 23.7078C20.1995 26.4384 16.2305 26.5497 13.8854 24.1989C11.6491 21.9626 11.6491 18.3239 13.8854 16.0875L26.6557 3.31716C27.7391 2.23385 29.1794 1.63728 30.7115 1.63728C32.2435 1.63728 33.6838 2.23396 34.7672 3.31716C35.8505 4.40048 36.447 5.84082 36.447 7.37281C36.447 8.90481 35.8504 10.3452 34.7672 11.4285L31.5245 14.6711C30.0277 16.168 30.0277 18.6037 31.5245 20.1006C33.0214 21.5975 35.457 21.5976 36.9539 20.1006L40.1965 16.858C40.5176 16.5369 40.8705 16.2599 41.2474 16.0272C42.9424 18.5386 46.5111 19.8879 49.6008 18.8387C49.8539 19.4918 49.9878 20.1922 49.9878 20.9136C49.9878 22.4456 49.3912 23.8859 48.3079 24.9693L36.584 36.6934C35.8722 37.4051 35.4803 38.3514 35.4803 39.3579C35.4803 40.3643 35.8722 41.3106 36.584 42.0223C37.2956 42.734 38.242 43.1259 39.2484 43.1259C40.2548 43.1259 41.2012 42.734 41.9128 42.0223L44.3131 39.6221C44.6379 39.2974 45.0697 39.1185 45.5289 39.1185C45.9881 39.1185 46.4199 39.2974 46.7447 39.6221C47.415 40.2925 47.415 41.3833 46.7447 42.0536L45.6191 43.1792C45.2987 43.4996 45.2987 44.019 45.6191 44.3393C45.7793 44.4996 45.9893 44.5796 46.1992 44.5796C46.4091 44.5796 46.6191 44.4996 46.7792 44.3393L47.9048 43.2137C49.2148 41.9036 49.2148 39.772 47.9048 38.4619C47.2701 37.8273 46.4263 37.4777 45.5288 37.4777C44.6313 37.4777 43.7875 37.8272 43.1528 38.4619L40.7525 40.8621C40.3507 41.2639 39.8164 41.4852 39.2482 41.4852C38.68 41.4852 38.1457 41.2639 37.7439 40.8621C37.3421 40.4602 37.1208 39.926 37.1208 39.3577C37.1208 38.7895 37.3421 38.2552 37.7439 37.8534L49.4679 26.1294C50.8611 24.7362 51.6284 22.8839 51.6284 20.9135C51.6284 19.9557 51.4457 19.0263 51.0994 18.1635C53.2874 16.8692 54.7587 14.4864 54.7587 11.7653ZM47.3283 17.5549C45.4953 17.5549 43.8597 16.6977 42.7982 15.3642C44.889 14.8108 47.3634 15.5394 48.7645 17.3745C48.3051 17.492 47.8239 17.5549 47.3283 17.5549ZM50.3205 16.72C48.5789 14.0728 44.8582 12.8829 41.9517 13.9085C41.6863 13.2451 41.5388 12.5223 41.5388 11.7653C41.5388 8.57284 44.1359 5.97557 47.3283 5.97557C50.5207 5.97557 53.118 8.57284 53.118 11.7653C53.118 13.8635 51.996 15.7044 50.3205 16.72Z" fill="white" fill-opacity="0.5"/>
<path d="M6.41558 11.0099C8.25581 11.0099 9.75303 9.51265 9.75303 7.67241C9.75303 5.83218 8.25581 4.33496 6.41558 4.33496C4.57534 4.33496 3.07812 5.83218 3.07812 7.67241C3.07812 9.51265 4.57534 11.0099 6.41558 11.0099ZM6.41558 5.97569C7.35112 5.97569 8.11231 6.73676 8.11231 7.67241C8.11231 8.60806 7.35123 9.36914 6.41558 9.36914C5.47993 9.36914 4.71885 8.60806 4.71885 7.67241C4.71885 6.73676 5.48004 5.97569 6.41558 5.97569Z" fill="white" fill-opacity="0.5"/>
</svg>
