<svg width="650" height="754" viewBox="0 0 650 754" fill="none" xmlns="http://www.w3.org/2000/svg">
<path d="M613.597 549.695L521.796 668.498C518.05 673.346 512.64 676.445 506.564 677.223C500.489 678.002 494.472 676.369 489.624 672.623C484.776 668.877 481.678 663.468 480.899 657.391C480.119 651.314 481.753 645.299 485.499 640.451L492.115 631.889C509.062 609.957 505.007 578.328 483.075 561.381C461.142 544.433 429.513 548.488 412.568 570.421L400.302 586.294C387.806 602.465 369.761 612.801 349.491 615.4C329.221 617.999 309.152 612.548 292.981 600.053C276.81 587.558 266.473 569.513 263.874 549.241C261.276 528.971 266.727 508.902 279.221 492.731L307.43 456.226C311.125 451.443 310.244 444.57 305.462 440.876C300.679 437.181 293.806 438.062 290.112 442.844L261.904 479.35C228.731 522.281 236.669 584.197 279.6 617.372C300.397 633.442 326.207 640.452 352.276 637.11C378.345 633.767 401.552 620.473 417.622 599.676L429.888 583.803C439.457 571.422 457.314 569.132 469.696 578.7C482.077 588.267 484.367 606.124 474.8 618.507L468.183 627.069C460.863 636.543 457.669 648.3 459.192 660.174C460.714 672.049 466.769 682.62 476.244 689.94C485.718 697.26 497.474 700.454 509.349 698.932C521.225 697.409 531.796 691.354 539.116 681.879L630.917 563.076C634.612 558.294 633.731 551.421 628.949 547.727C624.165 544.032 617.292 544.913 613.597 549.695Z" fill="#FF9C00" fill-opacity="0.05"/>
<path d="M171.314 500.821L79.9073 619.114C68.7377 633.569 71.4105 654.416 85.8655 665.585C93.0937 671.171 101.919 673.295 110.333 672.216C118.747 671.137 126.752 666.855 132.336 659.627L223.742 541.335C234.912 526.88 232.239 506.033 217.784 494.863C203.329 483.694 182.483 486.366 171.314 500.821ZM209.367 530.226L117.961 648.518C112.917 655.046 103.502 656.253 96.9732 651.209C90.4445 646.165 89.2386 636.75 94.2823 630.222L185.689 511.929C188.211 508.665 191.826 506.732 195.626 506.245C199.426 505.757 203.412 506.716 206.676 509.238C213.204 514.283 214.411 523.698 209.367 530.226Z" fill="#FF9C00" fill-opacity="0.05"/>
<path d="M566.069 152.673C560.994 113.096 524.667 85.0249 485.089 90.0992C445.511 95.1736 417.442 131.501 422.516 171.079C423.754 180.733 426.862 189.694 431.413 197.665C426.897 201.227 422.736 205.382 419.064 210.135L391.756 245.475C384.538 254.816 371.065 256.543 361.723 249.325C352.382 242.106 350.654 228.633 357.872 219.291L385.18 183.952C396.912 168.768 402.03 149.925 399.59 130.891C397.15 111.858 387.443 94.9149 372.26 83.1823C340.916 58.9616 295.71 64.7576 271.49 96.1022L163.947 235.278C139.727 266.622 145.523 311.827 176.867 336.047C211.954 363.165 259.546 351.365 281.771 317.775C288.99 308.435 302.462 306.707 311.804 313.925C316.329 317.421 319.223 322.472 319.95 328.144C320.677 333.816 319.153 339.433 315.655 343.958L280.449 389.519C277.751 393.011 278.394 398.029 281.886 400.726C285.377 403.424 290.395 402.78 293.092 399.289L328.298 353.727C334.404 345.825 337.068 336.018 335.798 326.112C334.528 316.206 329.476 307.388 321.574 301.28C305.261 288.675 281.734 291.691 269.127 308.005C250.403 337.216 212.201 343.208 186.636 323.403C162.264 304.57 157.758 269.421 176.59 245.048L284.134 105.872C293.257 94.0654 306.431 86.5188 321.231 84.6212C336.03 82.7238 350.683 86.7038 362.489 95.8257C374.295 104.949 381.842 118.123 383.74 132.922C385.637 147.721 381.657 162.374 372.535 174.18L345.228 209.519C332.622 225.833 335.639 249.362 351.952 261.968C368.266 274.573 391.794 271.558 404.399 255.243L431.707 219.904C434.41 216.405 437.477 213.291 440.829 210.577C460.313 232.738 496.458 241.352 525.004 227.391C528.258 233.385 530.419 239.986 531.313 246.954C533.21 261.753 529.23 276.406 520.108 288.212L421.377 415.987C415.383 423.742 412.769 433.37 414.015 443.092C415.262 452.813 420.22 461.47 427.976 467.463C435.732 473.457 445.36 476.07 455.081 474.824C464.803 473.577 473.46 468.62 479.453 460.863L499.666 434.705C502.401 431.165 506.351 428.903 510.787 428.334C515.222 427.766 519.615 428.958 523.155 431.693C530.46 437.339 531.811 447.876 526.166 455.181L516.688 467.448C513.99 470.94 514.633 475.958 518.125 478.655C519.87 480.004 521.998 480.518 524.025 480.258C526.053 479.998 527.983 478.964 529.331 477.218L538.809 464.95C549.842 450.673 547.202 430.081 532.924 419.049C526.008 413.704 517.423 411.373 508.754 412.484C500.084 413.596 492.366 418.017 487.021 424.934L466.807 451.092C463.423 455.472 458.536 458.271 453.047 458.975C447.558 459.679 442.124 458.203 437.744 454.819C433.365 451.434 430.566 446.548 429.862 441.059C429.158 435.57 430.634 430.134 434.018 425.755L532.75 297.982C544.483 282.798 549.601 263.955 547.161 244.921C545.974 235.67 543.058 226.918 538.644 219.012C558.177 203.799 569.439 178.96 566.069 152.673ZM501.462 217.804C483.755 220.074 466.894 213.819 454.988 202.253C474.5 194.317 499.305 198.29 515.112 214.282C510.82 215.986 506.25 217.19 501.462 217.804ZM529.332 206.033C509.23 182.618 471.814 175.732 445.008 189.238C441.623 183.159 439.303 176.359 438.365 169.047C434.411 138.208 456.283 109.902 487.121 105.948C517.959 101.995 546.265 123.867 550.219 154.705C552.818 174.974 544.259 194.147 529.332 206.033Z" fill="#FF9C00" fill-opacity="0.05"/>
</svg>
