<svg width="646" height="717" viewBox="0 0 646 717" fill="none" xmlns="http://www.w3.org/2000/svg">
<path d="M609.597 512.694L517.796 631.497C514.05 636.345 508.64 639.444 502.564 640.223C496.489 641.002 490.472 639.368 485.624 635.622C480.776 631.876 477.678 626.467 476.899 620.39C476.119 614.313 477.753 608.298 481.499 603.45L488.115 594.888C505.062 572.956 501.007 541.327 479.075 524.38C457.142 507.432 425.513 511.487 408.568 533.42L396.302 549.293C383.806 565.464 365.761 575.8 345.491 578.399C325.221 580.998 305.152 575.547 288.981 563.053C272.81 550.557 262.473 532.512 259.874 512.24C257.276 491.971 262.727 471.901 275.221 455.73L303.43 419.225C307.125 414.442 306.244 407.569 301.462 403.875C296.679 400.18 289.806 401.061 286.112 405.843L257.904 442.349C224.731 485.28 232.669 547.197 275.6 580.371C296.397 596.441 322.207 603.451 348.276 600.109C374.345 596.766 397.552 583.472 413.622 562.675L425.888 546.803C435.457 534.421 453.314 532.132 465.696 541.699C478.077 551.266 480.367 569.123 470.8 581.506L464.183 590.069C456.863 599.542 453.669 611.299 455.192 623.173C456.714 635.048 462.769 645.619 472.244 652.939C481.718 660.259 493.474 663.453 505.349 661.931C517.225 660.408 527.796 654.353 535.116 644.878L626.917 526.075C630.612 521.293 629.731 514.42 624.949 510.726C620.165 507.031 613.292 507.912 609.597 512.694V512.694Z" fill="#4069FF" fill-opacity="0.05"/>
<path d="M167.314 463.821L75.9073 582.113C64.7377 596.568 67.4105 617.415 81.8655 628.585C89.0937 634.17 97.9185 636.294 106.333 635.215C114.747 634.136 122.752 629.855 128.336 622.627L219.742 504.334C230.912 489.879 228.239 469.032 213.784 457.863C199.329 446.693 178.483 449.366 167.314 463.821V463.821ZM205.367 493.225L113.961 611.518C108.917 618.045 99.5018 619.252 92.9732 614.208C86.4445 609.165 85.2386 599.75 90.2823 593.221L181.689 474.929C184.211 471.665 187.826 469.731 191.626 469.244C195.426 468.757 199.412 469.716 202.676 472.238C209.204 477.283 210.411 486.698 205.367 493.225Z" fill="#4069FF" fill-opacity="0.05"/>
<path d="M562.069 115.673C556.994 76.0956 520.667 48.0247 481.089 53.099C441.511 58.1734 413.441 94.5008 418.516 134.078C419.754 143.733 422.862 152.694 427.413 160.665C422.897 164.227 418.736 168.382 415.064 173.135L387.756 208.474C380.538 217.816 367.065 219.543 357.723 212.325C348.382 205.106 346.654 191.633 353.872 182.291L381.18 146.951C392.912 131.768 398.03 112.925 395.59 93.891C393.15 74.8582 383.443 57.9147 368.26 46.1821C336.916 21.9615 291.71 27.7574 267.49 59.102L159.947 198.278C135.727 229.621 141.523 274.827 172.867 299.047C207.954 326.165 255.546 314.365 277.771 280.775C284.99 271.435 298.462 269.706 307.804 276.924C312.329 280.421 315.223 285.472 315.95 291.143C316.677 296.815 315.153 302.432 311.655 306.958L276.449 352.519C273.751 356.011 274.394 361.029 277.886 363.726C281.377 366.424 286.395 365.78 289.092 362.289L324.298 316.727C330.404 308.825 333.068 299.017 331.798 289.112C330.528 279.206 325.476 270.387 317.574 264.28C301.261 251.675 277.734 254.691 265.127 271.004C246.403 300.216 208.201 306.207 182.636 286.403C158.264 267.57 153.758 232.421 172.59 208.048L280.134 68.8716C289.257 57.0652 302.431 49.5186 317.231 47.621C332.03 45.7236 346.683 49.7036 358.489 58.8255C370.295 67.9485 377.842 81.1232 379.74 95.9221C381.637 110.721 377.657 125.374 368.535 137.18L341.228 172.519C328.622 188.833 331.639 212.362 347.952 224.967C364.266 237.573 387.794 234.558 400.399 218.243L427.707 182.904C430.41 179.405 433.477 176.291 436.829 173.577C456.313 195.738 492.458 204.352 521.004 190.39C524.258 196.385 526.419 202.986 527.313 209.954C529.21 224.753 525.23 239.406 516.108 251.212L417.377 378.986C411.383 386.742 408.769 396.369 410.015 406.091C411.262 415.813 416.22 424.47 423.976 430.462C431.732 436.456 441.359 439.07 451.081 437.824C460.803 436.577 469.46 431.619 475.453 423.863L495.666 397.705C498.401 394.165 502.351 391.903 506.787 391.334C511.222 390.765 515.615 391.958 519.155 394.693C526.46 400.339 527.811 410.875 522.166 418.18L512.688 430.448C509.99 433.94 510.633 438.958 514.125 441.655C515.87 443.004 517.998 443.518 520.025 443.258C522.053 442.998 523.983 441.964 525.331 440.218L534.809 427.95C545.842 413.673 543.202 393.081 528.924 382.049C522.008 376.704 513.423 374.372 504.754 375.484C496.084 376.596 488.366 381.016 483.021 387.934L462.807 414.092C459.423 418.472 454.536 421.271 449.047 421.975C443.558 422.679 438.124 421.203 433.744 417.818C429.365 414.434 426.566 409.548 425.862 404.058C425.158 398.569 426.634 393.134 430.018 388.755L528.75 260.982C540.483 245.798 545.601 226.955 543.161 207.921C541.974 198.669 539.058 189.918 534.644 182.012C554.177 166.799 565.439 141.96 562.069 115.673ZM497.462 180.804C479.756 183.074 462.894 176.819 450.988 165.252C470.5 157.316 495.305 161.29 511.112 177.281C506.82 178.986 502.25 180.19 497.462 180.804V180.804ZM525.332 169.033C505.23 145.617 467.814 138.732 441.008 152.238C437.623 146.159 435.303 139.359 434.365 132.046C430.411 101.208 452.283 72.9021 483.121 68.9482C513.959 64.9944 542.265 86.8669 546.219 117.705C548.818 137.974 540.259 157.147 525.332 169.033Z" fill="#4069FF" fill-opacity="0.05"/>
</svg>
