<svg width="650" height="754" viewBox="0 0 650 754" fill="none" xmlns="http://www.w3.org/2000/svg">
<path d="M613.597 549.694L521.796 668.497C518.05 673.345 512.64 676.444 506.564 677.223C500.489 678.002 494.472 676.368 489.624 672.622C484.776 668.876 481.678 663.467 480.899 657.39C480.119 651.313 481.753 645.298 485.499 640.45L492.115 631.888C509.062 609.956 505.007 578.327 483.075 561.38C461.142 544.432 429.513 548.487 412.568 570.42L400.302 586.293C387.806 602.464 369.761 612.8 349.491 615.399C329.221 617.998 309.152 612.547 292.981 600.053C276.81 587.557 266.473 569.512 263.874 549.24C261.276 528.971 266.727 508.901 279.221 492.73L307.43 456.225C311.125 451.442 310.244 444.569 305.462 440.875C300.679 437.18 293.806 438.061 290.112 442.843L261.904 479.349C228.731 522.28 236.669 584.197 279.6 617.371C300.397 633.441 326.207 640.451 352.276 637.109C378.345 633.766 401.552 620.472 417.622 599.675L429.888 583.803C439.457 571.421 457.314 569.132 469.696 578.699C482.077 588.266 484.367 606.123 474.8 618.506L468.183 627.069C460.863 636.542 457.669 648.299 459.192 660.173C460.714 672.048 466.769 682.619 476.244 689.939C485.718 697.259 497.474 700.453 509.349 698.931C521.225 697.408 531.796 691.353 539.116 681.878L630.917 563.075C634.612 558.293 633.731 551.42 628.949 547.726C624.165 544.031 617.292 544.912 613.597 549.694Z" fill="#4069FF" fill-opacity="0.05"/>
<path d="M171.314 500.821L79.9073 619.113C68.7377 633.568 71.4105 654.415 85.8655 665.585C93.0937 671.17 101.919 673.294 110.333 672.215C118.747 671.136 126.752 666.855 132.336 659.627L223.742 541.334C234.912 526.879 232.239 506.032 217.784 494.863C203.329 483.693 182.483 486.366 171.314 500.821V500.821ZM209.367 530.225L117.961 648.518C112.917 655.045 103.502 656.252 96.9732 651.208C90.4445 646.165 89.2386 636.75 94.2823 630.221L185.689 511.929C188.211 508.665 191.826 506.731 195.626 506.244C199.426 505.757 203.412 506.716 206.676 509.238C213.204 514.283 214.411 523.698 209.367 530.225Z" fill="#4069FF" fill-opacity="0.05"/>
</svg>
