<svg width="650" height="754" viewBox="0 0 650 754" fill="none" xmlns="http://www.w3.org/2000/svg">
<path d="M613.597 549.695L521.796 668.498C518.05 673.346 512.64 676.444 506.564 677.223C500.489 678.002 494.472 676.369 489.624 672.623C484.776 668.877 481.678 663.468 480.899 657.391C480.119 651.314 481.753 645.299 485.499 640.451L492.115 631.889C509.062 609.957 505.007 578.328 483.075 561.381C461.142 544.433 429.513 548.488 412.568 570.421L400.302 586.294C387.806 602.465 369.761 612.801 349.491 615.4C329.221 617.999 309.152 612.548 292.981 600.053C276.81 587.558 266.473 569.513 263.874 549.241C261.276 528.971 266.727 508.902 279.221 492.731L307.43 456.226C311.125 451.443 310.244 444.57 305.462 440.876C300.679 437.181 293.806 438.062 290.112 442.844L261.904 479.35C228.731 522.281 236.669 584.197 279.6 617.372C300.397 633.442 326.207 640.452 352.276 637.11C378.345 633.767 401.552 620.473 417.622 599.676L429.888 583.803C439.457 571.422 457.314 569.132 469.696 578.7C482.077 588.267 484.367 606.124 474.8 618.507L468.183 627.069C460.863 636.543 457.669 648.3 459.192 660.174C460.714 672.049 466.769 682.62 476.244 689.94C485.718 697.26 497.474 700.454 509.349 698.932C521.225 697.409 531.796 691.354 539.116 681.879L630.917 563.076C634.612 558.294 633.731 551.421 628.949 547.727C624.165 544.032 617.292 544.913 613.597 549.695V549.695Z" fill="#FF9C00" fill-opacity="0.05"/>
<path d="M171.314 500.821L79.9073 619.114C68.7377 633.569 71.4105 654.416 85.8655 665.585C93.0937 671.171 101.919 673.295 110.333 672.216C118.747 671.137 126.752 666.855 132.336 659.627L223.742 541.335C234.912 526.88 232.239 506.033 217.784 494.863C203.329 483.694 182.483 486.366 171.314 500.821ZM209.367 530.226L117.961 648.518C112.917 655.046 103.502 656.253 96.9732 651.209C90.4445 646.165 89.2386 636.75 94.2823 630.222L185.689 511.929C188.211 508.665 191.826 506.732 195.626 506.245C199.426 505.757 203.412 506.716 206.676 509.238C213.204 514.283 214.411 523.698 209.367 530.226Z" fill="#FF9C00" fill-opacity="0.05"/>
</svg>
