<svg width="117" height="65" viewBox="0 0 117 65" fill="none" xmlns="http://www.w3.org/2000/svg">
<style>
      @keyframes pulse {
        0% {
          -webkit-transform: scale(1);
          transform: scale(1);
        }
        70% {
          -webkit-transform: scale(0.9);
          transform: scale(0.9);
        }
        100% {
          -webkit-transform: scale(1);
          transform: scale(1);
        }
      }

    #pattern {
      animation: pulse 2s ease-in-out infinite;
      -webkit-animation: pulse 8s ease-in-out infinite;
      -webkit-transform-origin: center; -ms-transform-origin: center; transform-origin: center; transform-box: fill-box;
    }
  </style> 
<g style="animation: pulse 2s ease-in-out infinite;">
<path d="M11.0545 4.55779H8.44017V1.94349C8.44017 0.868368 7.5718 0 6.49668 0C5.42156 0 4.55319 0.868368 4.55319 1.94349V4.55779H1.94349C0.868368 4.55779 0 5.42615 0 6.50128C0 7.5764 0.868368 8.44477 1.94349 8.44477H4.55779V11.0591C4.55779 12.1342 5.42615 13.0026 6.50128 13.0026C7.5764 13.0026 8.44477 12.1342 8.44477 11.0591V8.44477H11.0591C12.1342 8.44477 13.0026 7.5764 13.0026 6.50128C13.0026 5.42615 12.1342 4.55779 11.0591 4.55779H11.0545Z" fill="url(#paint0_linear_98_106)"/>
</g>
<g style="animation: pulse 3s ease-in-out infinite;">
<path d="M37.0552 4.55779H34.4409V1.94349C34.4409 0.868368 33.5725 0 32.4974 0C31.4222 0 30.5539 0.868368 30.5539 1.94349V4.55779H27.9396C26.8645 4.55779 25.9961 5.42615 25.9961 6.50128C25.9961 7.5764 26.8645 8.44477 27.9396 8.44477H30.5539V11.0591C30.5539 12.1342 31.4222 13.0026 32.4974 13.0026C33.5725 13.0026 34.4409 12.1342 34.4409 11.0591V8.44477H37.0552C38.1303 8.44477 38.9986 7.5764 38.9986 6.50128C38.9986 5.42615 38.1303 4.55779 37.0552 4.55779V4.55779Z" fill="url(#paint1_linear_98_106)"/>
</g>
<g style="animation: pulse 4s ease-in-out infinite;">
<path d="M63.0556 4.55779H60.4414V1.94349C60.4414 0.868368 59.573 0 58.4979 0C57.4227 0 56.5544 0.868368 56.5544 1.94349V4.55779H53.9401C52.865 4.55779 51.9966 5.42615 51.9966 6.50128C51.9966 7.5764 52.865 8.44477 53.9401 8.44477H56.5544V11.0591C56.5544 12.1342 57.4227 13.0026 58.4979 13.0026C59.573 13.0026 60.4414 12.1342 60.4414 11.0591V8.44477H63.0556C64.1308 8.44477 64.9991 7.5764 64.9991 6.50128C64.9991 5.42615 64.1308 4.55779 63.0556 4.55779V4.55779Z" fill="url(#paint2_linear_98_106)"/>
</g>
<g style="animation: pulse 5s ease-in-out infinite;">
<path d="M89.0561 4.55779H86.4418V1.94349C86.4418 0.868368 85.5735 0 84.4984 0C83.4232 0 82.5549 0.868368 82.5549 1.94349V4.55779H79.9406C78.8654 4.55779 77.9971 5.42615 77.9971 6.50128C77.9971 7.5764 78.8654 8.44477 79.9406 8.44477H82.5549V11.0591C82.5549 12.1342 83.4232 13.0026 84.4984 13.0026C85.5735 13.0026 86.4418 12.1342 86.4418 11.0591V8.44477H89.0561C90.1313 8.44477 90.9996 7.5764 90.9996 6.50128C90.9996 5.42615 90.1313 4.55779 89.0561 4.55779V4.55779Z" fill="url(#paint3_linear_98_106)"/>
</g>
<g style="animation: pulse 6s ease-in-out infinite;">
<path d="M115.057 4.55779H112.442V1.94349C112.442 0.868368 111.574 0 110.499 0C109.424 0 108.555 0.868368 108.555 1.94349V4.55779H105.941C104.866 4.55779 103.998 5.42615 103.998 6.50128C103.998 7.5764 104.866 8.44477 105.941 8.44477H108.555V11.0591C108.555 12.1342 109.424 13.0026 110.499 13.0026C111.574 13.0026 112.442 12.1342 112.442 11.0591V8.44477H115.057C116.132 8.44477 117 7.5764 117 6.50128C117 5.42615 116.132 4.55779 115.057 4.55779V4.55779Z" fill="url(#paint4_linear_98_106)"/>
</g>
<g style="animation: pulse 2s ease-in-out infinite;">
<path d="M11.0545 30.5583H8.44017V27.944C8.44017 26.8689 7.5718 26.0005 6.49668 26.0005C5.42156 26.0005 4.55319 26.8689 4.55319 27.944V30.5583H1.94349C0.868368 30.5583 0 31.4266 0 32.5018C0 33.5769 0.868368 34.4453 1.94349 34.4453H4.55779V37.0596C4.55779 38.1347 5.42615 39.003 6.50128 39.003C7.5764 39.003 8.44477 38.1347 8.44477 37.0596V34.4453H11.0591C12.1342 34.4453 13.0026 33.5769 13.0026 32.5018C13.0026 31.4266 12.1342 30.5583 11.0591 30.5583H11.0545Z" fill="url(#paint5_linear_98_106)"/>
</g>
<g style="animation: pulse 3s ease-in-out infinite;">
<path d="M37.0552 30.5583H34.4409V27.944C34.4409 26.8689 33.5725 26.0005 32.4974 26.0005C31.4222 26.0005 30.5539 26.8689 30.5539 27.944V30.5583H27.9396C26.8645 30.5583 25.9961 31.4266 25.9961 32.5018C25.9961 33.5769 26.8645 34.4453 27.9396 34.4453H30.5539V37.0596C30.5539 38.1347 31.4222 39.003 32.4974 39.003C33.5725 39.003 34.4409 38.1347 34.4409 37.0596V34.4453H37.0552C38.1303 34.4453 38.9986 33.5769 38.9986 32.5018C38.9986 31.4266 38.1303 30.5583 37.0552 30.5583Z" fill="url(#paint6_linear_98_106)"/>
</g>
<g style="animation: pulse 4s ease-in-out infinite;">
<path d="M63.0556 30.5583H60.4414V27.944C60.4414 26.8689 59.573 26.0005 58.4979 26.0005C57.4227 26.0005 56.5544 26.8689 56.5544 27.944V30.5583H53.9401C52.865 30.5583 51.9966 31.4266 51.9966 32.5018C51.9966 33.5769 52.865 34.4453 53.9401 34.4453H56.5544V37.0596C56.5544 38.1347 57.4227 39.003 58.4979 39.003C59.573 39.003 60.4414 38.1347 60.4414 37.0596V34.4453H63.0556C64.1308 34.4453 64.9991 33.5769 64.9991 32.5018C64.9991 31.4266 64.1308 30.5583 63.0556 30.5583Z" fill="url(#paint7_linear_98_106)"/>
</g>
<g style="animation: pulse 5s ease-in-out infinite;">
<path d="M89.0561 30.5583H86.4418V27.944C86.4418 26.8689 85.5735 26.0005 84.4984 26.0005C83.4232 26.0005 82.5549 26.8689 82.5549 27.944V30.5583H79.9406C78.8654 30.5583 77.9971 31.4266 77.9971 32.5018C77.9971 33.5769 78.8654 34.4453 79.9406 34.4453H82.5549V37.0596C82.5549 38.1347 83.4232 39.003 84.4984 39.003C85.5735 39.003 86.4418 38.1347 86.4418 37.0596V34.4453H89.0561C90.1313 34.4453 90.9996 33.5769 90.9996 32.5018C90.9996 31.4266 90.1313 30.5583 89.0561 30.5583Z" fill="url(#paint8_linear_98_106)"/>
</g>
<g style="animation: pulse 6s ease-in-out infinite;">
<path d="M115.057 30.5583H112.442V27.944C112.442 26.8689 111.574 26.0005 110.499 26.0005C109.424 26.0005 108.555 26.8689 108.555 27.944V30.5583H105.941C104.866 30.5583 103.998 31.4266 103.998 32.5018C103.998 33.5769 104.866 34.4453 105.941 34.4453H108.555V37.0596C108.555 38.1347 109.424 39.003 110.499 39.003C111.574 39.003 112.442 38.1347 112.442 37.0596V34.4453H115.057C116.132 34.4453 117 33.5769 117 32.5018C117 31.4266 116.132 30.5583 115.057 30.5583Z" fill="url(#paint9_linear_98_106)"/>
</g>
<g style="animation: pulse 2s ease-in-out infinite;">
<path d="M11.0545 56.5544H8.44017V53.9401C8.44017 52.865 7.5718 51.9966 6.49668 51.9966C5.42156 51.9966 4.55319 52.865 4.55319 53.9401V56.5544H1.94349C0.868368 56.5544 0 57.4227 0 58.4979C0 59.573 0.868368 60.4414 1.94349 60.4414H4.55779V63.0556C4.55779 64.1308 5.42615 64.9991 6.50128 64.9991C7.5764 64.9991 8.44477 64.1308 8.44477 63.0556V60.4414H11.0591C12.1342 60.4414 13.0026 59.573 13.0026 58.4979C13.0026 57.4227 12.1342 56.5544 11.0591 56.5544H11.0545Z" fill="url(#paint10_linear_98_106)"/>
</g>
<g style="animation: pulse 3s ease-in-out infinite;">
<path d="M37.0552 56.5544H34.4409V53.9401C34.4409 52.865 33.5725 51.9966 32.4974 51.9966C31.4222 51.9966 30.5539 52.865 30.5539 53.9401V56.5544H27.9396C26.8645 56.5544 25.9961 57.4227 25.9961 58.4979C25.9961 59.573 26.8645 60.4414 27.9396 60.4414H30.5539V63.0556C30.5539 64.1308 31.4222 64.9991 32.4974 64.9991C33.5725 64.9991 34.4409 64.1308 34.4409 63.0556V60.4414H37.0552C38.1303 60.4414 38.9986 59.573 38.9986 58.4979C38.9986 57.4227 38.1303 56.5544 37.0552 56.5544Z" fill="url(#paint11_linear_98_106)"/>
</g>
<g style="animation: pulse 4s ease-in-out infinite;">
<path d="M63.0556 56.5544H60.4414V53.9401C60.4414 52.865 59.573 51.9966 58.4979 51.9966C57.4227 51.9966 56.5544 52.865 56.5544 53.9401V56.5544H53.9401C52.865 56.5544 51.9966 57.4227 51.9966 58.4979C51.9966 59.573 52.865 60.4414 53.9401 60.4414H56.5544V63.0556C56.5544 64.1308 57.4227 64.9991 58.4979 64.9991C59.573 64.9991 60.4414 64.1308 60.4414 63.0556V60.4414H63.0556C64.1308 60.4414 64.9991 59.573 64.9991 58.4979C64.9991 57.4227 64.1308 56.5544 63.0556 56.5544Z" fill="url(#paint12_linear_98_106)"/>
</g>
<g style="animation: pulse 5s ease-in-out infinite;">
<path d="M89.0561 56.5544H86.4418V53.9401C86.4418 52.865 85.5735 51.9966 84.4984 51.9966C83.4232 51.9966 82.5549 52.865 82.5549 53.9401V56.5544H79.9406C78.8654 56.5544 77.9971 57.4227 77.9971 58.4979C77.9971 59.573 78.8654 60.4414 79.9406 60.4414H82.5549V63.0556C82.5549 64.1308 83.4232 64.9991 84.4984 64.9991C85.5735 64.9991 86.4418 64.1308 86.4418 63.0556V60.4414H89.0561C90.1313 60.4414 90.9996 59.573 90.9996 58.4979C90.9996 57.4227 90.1313 56.5544 89.0561 56.5544Z" fill="url(#paint13_linear_98_106)"/>
</g>
<g style="animation: pulse 6s ease-in-out infinite;">
<path d="M115.057 56.5544H112.442V53.9401C112.442 52.865 111.574 51.9966 110.499 51.9966C109.424 51.9966 108.555 52.865 108.555 53.9401V56.5544H105.941C104.866 56.5544 103.998 57.4227 103.998 58.4979C103.998 59.573 104.866 60.4414 105.941 60.4414H108.555V63.0556C108.555 64.1308 109.424 64.9991 110.499 64.9991C111.574 64.9991 112.442 64.1308 112.442 63.0556V60.4414H115.057C116.132 60.4414 117 59.573 117 58.4979C117 57.4227 116.132 56.5544 115.057 56.5544Z" fill="url(#paint14_linear_98_106)"/>
</g>
<defs>
<linearGradient id="paint0_linear_98_106" x1="6.50128" y1="0" x2="6.50128" y2="13.0026" gradientUnits="userSpaceOnUse">
<stop stop-color="#EF0548"/>
<stop offset="1" stop-color="#ED5F6D"/>
</linearGradient>
<linearGradient id="paint1_linear_98_106" x1="32.4974" y1="0" x2="32.4974" y2="13.0026" gradientUnits="userSpaceOnUse">
<stop stop-color="#EF0548"/>
<stop offset="1" stop-color="#ED5F6D"/>
</linearGradient>
<linearGradient id="paint2_linear_98_106" x1="58.4979" y1="0" x2="58.4979" y2="13.0026" gradientUnits="userSpaceOnUse">
<stop stop-color="#EF0548"/>
<stop offset="1" stop-color="#ED5F6D"/>
</linearGradient>
<linearGradient id="paint3_linear_98_106" x1="84.4983" y1="0" x2="84.4983" y2="13.0026" gradientUnits="userSpaceOnUse">
<stop stop-color="#EF0548"/>
<stop offset="1" stop-color="#ED5F6D"/>
</linearGradient>
<linearGradient id="paint4_linear_98_106" x1="110.499" y1="0" x2="110.499" y2="13.0026" gradientUnits="userSpaceOnUse">
<stop stop-color="#EF0548"/>
<stop offset="1" stop-color="#ED5F6D"/>
</linearGradient>
<linearGradient id="paint5_linear_98_106" x1="6.50128" y1="26.0005" x2="6.50128" y2="39.003" gradientUnits="userSpaceOnUse">
<stop stop-color="#EF0548"/>
<stop offset="1" stop-color="#ED5F6D"/>
</linearGradient>
<linearGradient id="paint6_linear_98_106" x1="32.4974" y1="26.0005" x2="32.4974" y2="39.003" gradientUnits="userSpaceOnUse">
<stop stop-color="#EF0548"/>
<stop offset="1" stop-color="#ED5F6D"/>
</linearGradient>
<linearGradient id="paint7_linear_98_106" x1="58.4979" y1="26.0005" x2="58.4979" y2="39.003" gradientUnits="userSpaceOnUse">
<stop stop-color="#EF0548"/>
<stop offset="1" stop-color="#ED5F6D"/>
</linearGradient>
<linearGradient id="paint8_linear_98_106" x1="84.4983" y1="26.0005" x2="84.4983" y2="39.003" gradientUnits="userSpaceOnUse">
<stop stop-color="#EF0548"/>
<stop offset="1" stop-color="#ED5F6D"/>
</linearGradient>
<linearGradient id="paint9_linear_98_106" x1="110.499" y1="26.0005" x2="110.499" y2="39.003" gradientUnits="userSpaceOnUse">
<stop stop-color="#EF0548"/>
<stop offset="1" stop-color="#ED5F6D"/>
</linearGradient>
<linearGradient id="paint10_linear_98_106" x1="6.50128" y1="51.9966" x2="6.50128" y2="64.9991" gradientUnits="userSpaceOnUse">
<stop stop-color="#EF0548"/>
<stop offset="1" stop-color="#ED5F6D"/>
</linearGradient>
<linearGradient id="paint11_linear_98_106" x1="32.4974" y1="51.9966" x2="32.4974" y2="64.9991" gradientUnits="userSpaceOnUse">
<stop stop-color="#EF0548"/>
<stop offset="1" stop-color="#ED5F6D"/>
</linearGradient>
<linearGradient id="paint12_linear_98_106" x1="58.4979" y1="51.9966" x2="58.4979" y2="64.9991" gradientUnits="userSpaceOnUse">
<stop stop-color="#EF0548"/>
<stop offset="1" stop-color="#ED5F6D"/>
</linearGradient>
<linearGradient id="paint13_linear_98_106" x1="84.4983" y1="51.9966" x2="84.4983" y2="64.9991" gradientUnits="userSpaceOnUse">
<stop stop-color="#EF0548"/>
<stop offset="1" stop-color="#ED5F6D"/>
</linearGradient>
<linearGradient id="paint14_linear_98_106" x1="110.499" y1="51.9966" x2="110.499" y2="64.9991" gradientUnits="userSpaceOnUse">
<stop stop-color="#EF0548"/>
<stop offset="1" stop-color="#ED5F6D"/>
</linearGradient>
</defs>
</svg>
