<svg width="811" height="190" viewBox="0 0 811 190" fill="none" xmlns="http://www.w3.org/2000/svg">
<style>
      @keyframes pulse {
        0% {
          -webkit-transform: scale(1);
          transform: scale(1);
        }
        70% {
          -webkit-transform: scale(0.8);
          transform: scale(0.8);
        }
        100% {
          -webkit-transform: scale(1);
          transform: scale(1);
        }
      }

    #ball-1 { animation: pulse 2s ease-in-out infinite; }
    #ball-2 { animation: pulse 3s ease-in-out infinite; }  
    #ball-4 { animation: pulse 10s ease-in-out infinite; }
  </style> 
<g id="banner-overly">
<g id="ball-4">
<path id="Vector" d="M609.156 154.687C612.603 154.687 615.406 157.491 615.406 160.937C615.406 161.369 615.756 161.719 616.188 161.719C616.619 161.719 616.969 161.369 616.969 160.937C616.969 157.491 619.773 154.687 623.219 154.687C623.65 154.687 624 154.338 624 153.906C624 153.475 623.65 153.125 623.219 153.125C619.773 153.125 616.969 150.321 616.969 146.875C616.969 146.444 616.619 146.094 616.188 146.094C615.756 146.094 615.406 146.444 615.406 146.875C615.406 150.321 612.603 153.125 609.156 153.125C608.725 153.125 608.375 153.475 608.375 153.906C608.375 154.338 608.725 154.687 609.156 154.687ZM616.188 150.279C616.955 151.857 618.237 153.139 619.815 153.906C618.237 154.673 616.955 155.956 616.188 157.533C615.421 155.956 614.138 154.673 612.56 153.906C614.138 153.139 615.421 151.857 616.188 150.279Z" fill="white"/>
<path id="Vector_2" d="M584.781 131.25C586.935 131.25 588.687 133.002 588.687 135.156C588.687 135.588 589.037 135.937 589.469 135.937C589.9 135.937 590.25 135.588 590.25 135.156C590.25 133.002 592.002 131.25 594.156 131.25C594.588 131.25 594.937 130.9 594.937 130.469C594.937 130.037 594.588 129.687 594.156 129.687C592.002 129.687 590.25 127.935 590.25 125.781C590.25 125.35 589.9 125 589.469 125C589.037 125 588.687 125.35 588.687 125.781C588.687 127.935 586.935 129.687 584.781 129.687C584.35 129.687 584 130.037 584 130.469C584 130.9 584.35 131.25 584.781 131.25ZM589.469 128.596C589.931 129.362 590.575 130.007 591.342 130.469C590.575 130.931 589.931 131.575 589.469 132.342C589.007 131.575 588.362 130.931 587.596 130.469C588.362 130.007 589.007 129.362 589.469 128.596Z" fill="white"/>
<path id="Vector_3" d="M605.797 147.109C606.228 147.109 606.578 146.76 606.578 146.328C606.578 145.897 606.228 145.547 605.797 145.547C605.365 145.547 605.016 145.897 605.016 146.328C605.016 146.76 605.365 147.109 605.797 147.109Z" fill="#EF0548"/>
<path id="Vector_4" d="M607.881 144.546C608.101 144.917 608.581 145.04 608.952 144.819C610.992 143.609 613.332 142.969 615.719 142.969C616.15 142.969 616.5 142.619 616.5 142.187C616.5 141.756 616.15 141.406 615.719 141.406C608.395 141.406 602.437 135.448 602.437 128.125C602.437 127.694 602.088 127.344 601.656 127.344C601.225 127.344 600.875 127.694 600.875 128.125C600.875 135.448 594.917 141.406 587.594 141.406C587.162 141.406 586.812 141.756 586.812 142.187C586.812 142.619 587.162 142.969 587.594 142.969C594.917 142.969 600.875 148.927 600.875 156.25C600.875 156.681 601.225 157.031 601.656 157.031C602.088 157.031 602.437 156.681 602.437 156.25C602.437 153.863 603.077 151.523 604.288 149.483C604.508 149.112 604.386 148.632 604.015 148.412C603.644 148.192 603.165 148.314 602.945 148.685C602.416 149.576 601.985 150.517 601.656 151.492C600.175 147.127 596.715 143.668 592.35 142.187C596.716 140.707 600.176 137.247 601.656 132.881C603.136 137.246 606.596 140.706 610.961 142.187C609.986 142.516 609.045 142.947 608.154 143.476C607.783 143.696 607.661 144.175 607.881 144.546V144.546Z" fill="#EF0548"/>
</g>
<g id="ball-2">
<path id="Vector_5" d="M54.7806 119.736C46.7228 122.21 37.7432 118.43 32.7765 111.882C27.7178 105.212 27.7987 96.5773 32.5002 89.7462L56.2802 55.1764C61.3185 47.8564 59.2152 38.7197 52.0143 33.7488C44.8313 28.79 35.4735 29.9824 30.4241 37.3183C25.7671 44.099 21.1874 53.4735 11.2737 51.3566C6.15256 50.2628 2.38175 46.3809 1.43264 41.2257C1.12736 39.5653 3.76713 39.0008 4.08664 40.737C4.83414 44.7983 7.80402 47.8561 11.8374 48.7173C20.2283 50.5093 24.2945 41.4768 28.2005 35.7894C34.0809 27.2451 45.1374 25.7383 53.5444 31.5258C61.9973 37.3447 64.3729 48.178 58.5034 56.706L34.7235 91.2758C29.4715 98.9063 31.3557 108.481 38.693 113.999C46.4753 119.853 56.9726 118.683 62.59 110.522L80.1043 85.0747C84.3798 78.8629 91.6162 75.9819 98.9889 77.5565C106.379 79.1346 111.821 84.7365 113.19 92.176C113.496 93.8367 110.856 94.4007 110.536 92.6647C109.368 86.3192 104.728 81.5413 98.4253 80.1955C92.1404 78.8535 85.972 81.309 82.3271 86.6047L64.8128 112.052C62.1512 115.919 58.7059 118.531 54.7806 119.736V119.736Z" fill="url(#paint0_linear_801_152)"/>
</g>
<g id="ball-3">
<path id="Ellipse 19" d="M811 160C811 176.569 797.569 190 781 190C764.431 190 751 176.569 751 160C751 143.431 764.431 130 781 130C797.569 130 811 143.431 811 160Z" fill="#EF0548" fill-opacity="0.3"/>
</g>
<g id="ball-1">
<circle id="Ellipse 20" cx="14" cy="13" r="13" fill="#EF0548" fill-opacity="0.2"/>
</g>
</g>
<defs>
<linearGradient id="paint0_linear_801_152" x1="0.779986" y1="40.7423" x2="117.278" y2="99.8717" gradientUnits="userSpaceOnUse">
<stop offset="0.093209" stop-color="#EF0548"/>
<stop offset="1" stop-color="#EF0548" stop-opacity="0"/>
</linearGradient>
</defs>
</svg>
